<?xml version="1.0" encoding="utf-8" standalone="no"?>
<!DOCTYPE svg PUBLIC "-//W3C//DTD SVG 1.1//EN"
  "http://www.w3.org/Graphics/SVG/1.1/DTD/svg11.dtd">
<svg height="345.6pt" version="1.1" viewBox="0 0 460.8 345.6" width="460.8pt" xmlns="http://www.w3.org/2000/svg" xmlns:xlink="http://www.w3.org/1999/xlink">
 <metadata>
  <rdf:RDF xmlns:cc="http://creativecommons.org/ns#" xmlns:dc="http://purl.org/dc/elements/1.1/" xmlns:rdf="http://www.w3.org/1999/02/22-rdf-syntax-ns#">
   <cc:Work>
    <dc:type rdf:resource="http://purl.org/dc/dcmitype/StillImage"/>
    <dc:date>2022-05-05T15:12:50.293252</dc:date>
    <dc:format>image/svg+xml</dc:format>
    <dc:creator>
     <cc:Agent>
      <dc:title>Matplotlib v3.4.3, https://matplotlib.org/</dc:title>
     </cc:Agent>
    </dc:creator>
   </cc:Work>
  </rdf:RDF>
 </metadata>
 <defs>
  <style type="text/css">*{stroke-linecap:butt;stroke-linejoin:round;}</style>
 </defs>
 <g id="figure_1">
  <g id="patch_1">
   <path d="M 0 345.6 
L 460.8 345.6 
L 460.8 0 
L 0 0 
z
" style="fill:#ffffff;"/>
  </g>
  <g id="axes_1">
   <g id="patch_2">
    <path d="M 57.6 307.584 
L 414.72 307.584 
L 414.72 41.472 
L 57.6 41.472 
z
" style="fill:#ffffff;"/>
   </g>
   <g id="matplotlib.axis_1">
    <g id="xtick_1">
     <g id="line2d_1">
      <path clip-path="url(#pda899d8002)" d="M 57.6 307.584 
L 57.6 41.472 
" style="fill:none;stroke:#000000;stroke-linecap:square;stroke-width:0.5;"/>
     </g>
     <g id="line2d_2">
      <defs>
       <path d="M 0 0 
L 0 3.5 
" id="m9d226a78ce" style="stroke:#000000;stroke-width:0.8;"/>
      </defs>
      <g>
       <use style="stroke:#000000;stroke-width:0.8;" x="57.6" xlink:href="#m9d226a78ce" y="307.584"/>
      </g>
     </g>
     <g id="text_1">
      <!-- 0 -->
      <g transform="translate(54.41875 322.182437)scale(0.1 -0.1)">
       <defs>
        <path d="M 2034 4250 
Q 1547 4250 1301 3770 
Q 1056 3291 1056 2328 
Q 1056 1369 1301 889 
Q 1547 409 2034 409 
Q 2525 409 2770 889 
Q 3016 1369 3016 2328 
Q 3016 3291 2770 3770 
Q 2525 4250 2034 4250 
z
M 2034 4750 
Q 2819 4750 3233 4129 
Q 3647 3509 3647 2328 
Q 3647 1150 3233 529 
Q 2819 -91 2034 -91 
Q 1250 -91 836 529 
Q 422 1150 422 2328 
Q 422 3509 836 4129 
Q 1250 4750 2034 4750 
z
" id="DejaVuSans-30" transform="scale(0.015625)"/>
       </defs>
       <use xlink:href="#DejaVuSans-30"/>
      </g>
     </g>
    </g>
    <g id="xtick_2">
     <g id="line2d_3">
      <path clip-path="url(#pda899d8002)" d="M 118.128814 307.584 
L 118.128814 41.472 
" style="fill:none;stroke:#000000;stroke-linecap:square;stroke-width:0.5;"/>
     </g>
     <g id="line2d_4">
      <g>
       <use style="stroke:#000000;stroke-width:0.8;" x="118.128814" xlink:href="#m9d226a78ce" y="307.584"/>
      </g>
     </g>
     <g id="text_2">
      <!-- 10 -->
      <g transform="translate(111.766314 322.182437)scale(0.1 -0.1)">
       <defs>
        <path d="M 794 531 
L 1825 531 
L 1825 4091 
L 703 3866 
L 703 4441 
L 1819 4666 
L 2450 4666 
L 2450 531 
L 3481 531 
L 3481 0 
L 794 0 
L 794 531 
z
" id="DejaVuSans-31" transform="scale(0.015625)"/>
       </defs>
       <use xlink:href="#DejaVuSans-31"/>
       <use x="63.623047" xlink:href="#DejaVuSans-30"/>
      </g>
     </g>
    </g>
    <g id="xtick_3">
     <g id="line2d_5">
      <path clip-path="url(#pda899d8002)" d="M 178.657627 307.584 
L 178.657627 41.472 
" style="fill:none;stroke:#000000;stroke-linecap:square;stroke-width:0.5;"/>
     </g>
     <g id="line2d_6">
      <g>
       <use style="stroke:#000000;stroke-width:0.8;" x="178.657627" xlink:href="#m9d226a78ce" y="307.584"/>
      </g>
     </g>
     <g id="text_3">
      <!-- 20 -->
      <g transform="translate(172.295127 322.182437)scale(0.1 -0.1)">
       <defs>
        <path d="M 1228 531 
L 3431 531 
L 3431 0 
L 469 0 
L 469 531 
Q 828 903 1448 1529 
Q 2069 2156 2228 2338 
Q 2531 2678 2651 2914 
Q 2772 3150 2772 3378 
Q 2772 3750 2511 3984 
Q 2250 4219 1831 4219 
Q 1534 4219 1204 4116 
Q 875 4013 500 3803 
L 500 4441 
Q 881 4594 1212 4672 
Q 1544 4750 1819 4750 
Q 2544 4750 2975 4387 
Q 3406 4025 3406 3419 
Q 3406 3131 3298 2873 
Q 3191 2616 2906 2266 
Q 2828 2175 2409 1742 
Q 1991 1309 1228 531 
z
" id="DejaVuSans-32" transform="scale(0.015625)"/>
       </defs>
       <use xlink:href="#DejaVuSans-32"/>
       <use x="63.623047" xlink:href="#DejaVuSans-30"/>
      </g>
     </g>
    </g>
    <g id="xtick_4">
     <g id="line2d_7">
      <path clip-path="url(#pda899d8002)" d="M 239.186441 307.584 
L 239.186441 41.472 
" style="fill:none;stroke:#000000;stroke-linecap:square;stroke-width:0.5;"/>
     </g>
     <g id="line2d_8">
      <g>
       <use style="stroke:#000000;stroke-width:0.8;" x="239.186441" xlink:href="#m9d226a78ce" y="307.584"/>
      </g>
     </g>
     <g id="text_4">
      <!-- 30 -->
      <g transform="translate(232.823941 322.182437)scale(0.1 -0.1)">
       <defs>
        <path d="M 2597 2516 
Q 3050 2419 3304 2112 
Q 3559 1806 3559 1356 
Q 3559 666 3084 287 
Q 2609 -91 1734 -91 
Q 1441 -91 1130 -33 
Q 819 25 488 141 
L 488 750 
Q 750 597 1062 519 
Q 1375 441 1716 441 
Q 2309 441 2620 675 
Q 2931 909 2931 1356 
Q 2931 1769 2642 2001 
Q 2353 2234 1838 2234 
L 1294 2234 
L 1294 2753 
L 1863 2753 
Q 2328 2753 2575 2939 
Q 2822 3125 2822 3475 
Q 2822 3834 2567 4026 
Q 2313 4219 1838 4219 
Q 1578 4219 1281 4162 
Q 984 4106 628 3988 
L 628 4550 
Q 988 4650 1302 4700 
Q 1616 4750 1894 4750 
Q 2613 4750 3031 4423 
Q 3450 4097 3450 3541 
Q 3450 3153 3228 2886 
Q 3006 2619 2597 2516 
z
" id="DejaVuSans-33" transform="scale(0.015625)"/>
       </defs>
       <use xlink:href="#DejaVuSans-33"/>
       <use x="63.623047" xlink:href="#DejaVuSans-30"/>
      </g>
     </g>
    </g>
    <g id="xtick_5">
     <g id="line2d_9">
      <path clip-path="url(#pda899d8002)" d="M 299.715254 307.584 
L 299.715254 41.472 
" style="fill:none;stroke:#000000;stroke-linecap:square;stroke-width:0.5;"/>
     </g>
     <g id="line2d_10">
      <g>
       <use style="stroke:#000000;stroke-width:0.8;" x="299.715254" xlink:href="#m9d226a78ce" y="307.584"/>
      </g>
     </g>
     <g id="text_5">
      <!-- 40 -->
      <g transform="translate(293.352754 322.182437)scale(0.1 -0.1)">
       <defs>
        <path d="M 2419 4116 
L 825 1625 
L 2419 1625 
L 2419 4116 
z
M 2253 4666 
L 3047 4666 
L 3047 1625 
L 3713 1625 
L 3713 1100 
L 3047 1100 
L 3047 0 
L 2419 0 
L 2419 1100 
L 313 1100 
L 313 1709 
L 2253 4666 
z
" id="DejaVuSans-34" transform="scale(0.015625)"/>
       </defs>
       <use xlink:href="#DejaVuSans-34"/>
       <use x="63.623047" xlink:href="#DejaVuSans-30"/>
      </g>
     </g>
    </g>
    <g id="xtick_6">
     <g id="line2d_11">
      <path clip-path="url(#pda899d8002)" d="M 360.244068 307.584 
L 360.244068 41.472 
" style="fill:none;stroke:#000000;stroke-linecap:square;stroke-width:0.5;"/>
     </g>
     <g id="line2d_12">
      <g>
       <use style="stroke:#000000;stroke-width:0.8;" x="360.244068" xlink:href="#m9d226a78ce" y="307.584"/>
      </g>
     </g>
     <g id="text_6">
      <!-- 50 -->
      <g transform="translate(353.881568 322.182437)scale(0.1 -0.1)">
       <defs>
        <path d="M 691 4666 
L 3169 4666 
L 3169 4134 
L 1269 4134 
L 1269 2991 
Q 1406 3038 1543 3061 
Q 1681 3084 1819 3084 
Q 2600 3084 3056 2656 
Q 3513 2228 3513 1497 
Q 3513 744 3044 326 
Q 2575 -91 1722 -91 
Q 1428 -91 1123 -41 
Q 819 9 494 109 
L 494 744 
Q 775 591 1075 516 
Q 1375 441 1709 441 
Q 2250 441 2565 725 
Q 2881 1009 2881 1497 
Q 2881 1984 2565 2268 
Q 2250 2553 1709 2553 
Q 1456 2553 1204 2497 
Q 953 2441 691 2322 
L 691 4666 
z
" id="DejaVuSans-35" transform="scale(0.015625)"/>
       </defs>
       <use xlink:href="#DejaVuSans-35"/>
       <use x="63.623047" xlink:href="#DejaVuSans-30"/>
      </g>
     </g>
    </g>
    <g id="xtick_7">
     <g id="line2d_13">
      <path clip-path="url(#pda899d8002)" d="M 69.705763 307.584 
L 69.705763 41.472 
" style="fill:none;stroke:#000000;stroke-dasharray:0.5,0.825;stroke-dashoffset:0;stroke-width:0.5;"/>
     </g>
     <g id="line2d_14">
      <defs>
       <path d="M 0 0 
L 0 2 
" id="mc8a9eca84b" style="stroke:#000000;stroke-width:0.6;"/>
      </defs>
      <g>
       <use style="stroke:#000000;stroke-width:0.6;" x="69.705763" xlink:href="#mc8a9eca84b" y="307.584"/>
      </g>
     </g>
    </g>
    <g id="xtick_8">
     <g id="line2d_15">
      <path clip-path="url(#pda899d8002)" d="M 81.811525 307.584 
L 81.811525 41.472 
" style="fill:none;stroke:#000000;stroke-dasharray:0.5,0.825;stroke-dashoffset:0;stroke-width:0.5;"/>
     </g>
     <g id="line2d_16">
      <g>
       <use style="stroke:#000000;stroke-width:0.6;" x="81.811525" xlink:href="#mc8a9eca84b" y="307.584"/>
      </g>
     </g>
    </g>
    <g id="xtick_9">
     <g id="line2d_17">
      <path clip-path="url(#pda899d8002)" d="M 93.917288 307.584 
L 93.917288 41.472 
" style="fill:none;stroke:#000000;stroke-dasharray:0.5,0.825;stroke-dashoffset:0;stroke-width:0.5;"/>
     </g>
     <g id="line2d_18">
      <g>
       <use style="stroke:#000000;stroke-width:0.6;" x="93.917288" xlink:href="#mc8a9eca84b" y="307.584"/>
      </g>
     </g>
    </g>
    <g id="xtick_10">
     <g id="line2d_19">
      <path clip-path="url(#pda899d8002)" d="M 106.023051 307.584 
L 106.023051 41.472 
" style="fill:none;stroke:#000000;stroke-dasharray:0.5,0.825;stroke-dashoffset:0;stroke-width:0.5;"/>
     </g>
     <g id="line2d_20">
      <g>
       <use style="stroke:#000000;stroke-width:0.6;" x="106.023051" xlink:href="#mc8a9eca84b" y="307.584"/>
      </g>
     </g>
    </g>
    <g id="xtick_11">
     <g id="line2d_21">
      <path clip-path="url(#pda899d8002)" d="M 130.234576 307.584 
L 130.234576 41.472 
" style="fill:none;stroke:#000000;stroke-dasharray:0.5,0.825;stroke-dashoffset:0;stroke-width:0.5;"/>
     </g>
     <g id="line2d_22">
      <g>
       <use style="stroke:#000000;stroke-width:0.6;" x="130.234576" xlink:href="#mc8a9eca84b" y="307.584"/>
      </g>
     </g>
    </g>
    <g id="xtick_12">
     <g id="line2d_23">
      <path clip-path="url(#pda899d8002)" d="M 142.340339 307.584 
L 142.340339 41.472 
" style="fill:none;stroke:#000000;stroke-dasharray:0.5,0.825;stroke-dashoffset:0;stroke-width:0.5;"/>
     </g>
     <g id="line2d_24">
      <g>
       <use style="stroke:#000000;stroke-width:0.6;" x="142.340339" xlink:href="#mc8a9eca84b" y="307.584"/>
      </g>
     </g>
    </g>
    <g id="xtick_13">
     <g id="line2d_25">
      <path clip-path="url(#pda899d8002)" d="M 154.446102 307.584 
L 154.446102 41.472 
" style="fill:none;stroke:#000000;stroke-dasharray:0.5,0.825;stroke-dashoffset:0;stroke-width:0.5;"/>
     </g>
     <g id="line2d_26">
      <g>
       <use style="stroke:#000000;stroke-width:0.6;" x="154.446102" xlink:href="#mc8a9eca84b" y="307.584"/>
      </g>
     </g>
    </g>
    <g id="xtick_14">
     <g id="line2d_27">
      <path clip-path="url(#pda899d8002)" d="M 166.551864 307.584 
L 166.551864 41.472 
" style="fill:none;stroke:#000000;stroke-dasharray:0.5,0.825;stroke-dashoffset:0;stroke-width:0.5;"/>
     </g>
     <g id="line2d_28">
      <g>
       <use style="stroke:#000000;stroke-width:0.6;" x="166.551864" xlink:href="#mc8a9eca84b" y="307.584"/>
      </g>
     </g>
    </g>
    <g id="xtick_15">
     <g id="line2d_29">
      <path clip-path="url(#pda899d8002)" d="M 190.76339 307.584 
L 190.76339 41.472 
" style="fill:none;stroke:#000000;stroke-dasharray:0.5,0.825;stroke-dashoffset:0;stroke-width:0.5;"/>
     </g>
     <g id="line2d_30">
      <g>
       <use style="stroke:#000000;stroke-width:0.6;" x="190.76339" xlink:href="#mc8a9eca84b" y="307.584"/>
      </g>
     </g>
    </g>
    <g id="xtick_16">
     <g id="line2d_31">
      <path clip-path="url(#pda899d8002)" d="M 202.869153 307.584 
L 202.869153 41.472 
" style="fill:none;stroke:#000000;stroke-dasharray:0.5,0.825;stroke-dashoffset:0;stroke-width:0.5;"/>
     </g>
     <g id="line2d_32">
      <g>
       <use style="stroke:#000000;stroke-width:0.6;" x="202.869153" xlink:href="#mc8a9eca84b" y="307.584"/>
      </g>
     </g>
    </g>
    <g id="xtick_17">
     <g id="line2d_33">
      <path clip-path="url(#pda899d8002)" d="M 214.974915 307.584 
L 214.974915 41.472 
" style="fill:none;stroke:#000000;stroke-dasharray:0.5,0.825;stroke-dashoffset:0;stroke-width:0.5;"/>
     </g>
     <g id="line2d_34">
      <g>
       <use style="stroke:#000000;stroke-width:0.6;" x="214.974915" xlink:href="#mc8a9eca84b" y="307.584"/>
      </g>
     </g>
    </g>
    <g id="xtick_18">
     <g id="line2d_35">
      <path clip-path="url(#pda899d8002)" d="M 227.080678 307.584 
L 227.080678 41.472 
" style="fill:none;stroke:#000000;stroke-dasharray:0.5,0.825;stroke-dashoffset:0;stroke-width:0.5;"/>
     </g>
     <g id="line2d_36">
      <g>
       <use style="stroke:#000000;stroke-width:0.6;" x="227.080678" xlink:href="#mc8a9eca84b" y="307.584"/>
      </g>
     </g>
    </g>
    <g id="xtick_19">
     <g id="line2d_37">
      <path clip-path="url(#pda899d8002)" d="M 251.292203 307.584 
L 251.292203 41.472 
" style="fill:none;stroke:#000000;stroke-dasharray:0.5,0.825;stroke-dashoffset:0;stroke-width:0.5;"/>
     </g>
     <g id="line2d_38">
      <g>
       <use style="stroke:#000000;stroke-width:0.6;" x="251.292203" xlink:href="#mc8a9eca84b" y="307.584"/>
      </g>
     </g>
    </g>
    <g id="xtick_20">
     <g id="line2d_39">
      <path clip-path="url(#pda899d8002)" d="M 263.397966 307.584 
L 263.397966 41.472 
" style="fill:none;stroke:#000000;stroke-dasharray:0.5,0.825;stroke-dashoffset:0;stroke-width:0.5;"/>
     </g>
     <g id="line2d_40">
      <g>
       <use style="stroke:#000000;stroke-width:0.6;" x="263.397966" xlink:href="#mc8a9eca84b" y="307.584"/>
      </g>
     </g>
    </g>
    <g id="xtick_21">
     <g id="line2d_41">
      <path clip-path="url(#pda899d8002)" d="M 275.503729 307.584 
L 275.503729 41.472 
" style="fill:none;stroke:#000000;stroke-dasharray:0.5,0.825;stroke-dashoffset:0;stroke-width:0.5;"/>
     </g>
     <g id="line2d_42">
      <g>
       <use style="stroke:#000000;stroke-width:0.6;" x="275.503729" xlink:href="#mc8a9eca84b" y="307.584"/>
      </g>
     </g>
    </g>
    <g id="xtick_22">
     <g id="line2d_43">
      <path clip-path="url(#pda899d8002)" d="M 287.609492 307.584 
L 287.609492 41.472 
" style="fill:none;stroke:#000000;stroke-dasharray:0.5,0.825;stroke-dashoffset:0;stroke-width:0.5;"/>
     </g>
     <g id="line2d_44">
      <g>
       <use style="stroke:#000000;stroke-width:0.6;" x="287.609492" xlink:href="#mc8a9eca84b" y="307.584"/>
      </g>
     </g>
    </g>
    <g id="xtick_23">
     <g id="line2d_45">
      <path clip-path="url(#pda899d8002)" d="M 311.821017 307.584 
L 311.821017 41.472 
" style="fill:none;stroke:#000000;stroke-dasharray:0.5,0.825;stroke-dashoffset:0;stroke-width:0.5;"/>
     </g>
     <g id="line2d_46">
      <g>
       <use style="stroke:#000000;stroke-width:0.6;" x="311.821017" xlink:href="#mc8a9eca84b" y="307.584"/>
      </g>
     </g>
    </g>
    <g id="xtick_24">
     <g id="line2d_47">
      <path clip-path="url(#pda899d8002)" d="M 323.92678 307.584 
L 323.92678 41.472 
" style="fill:none;stroke:#000000;stroke-dasharray:0.5,0.825;stroke-dashoffset:0;stroke-width:0.5;"/>
     </g>
     <g id="line2d_48">
      <g>
       <use style="stroke:#000000;stroke-width:0.6;" x="323.92678" xlink:href="#mc8a9eca84b" y="307.584"/>
      </g>
     </g>
    </g>
    <g id="xtick_25">
     <g id="line2d_49">
      <path clip-path="url(#pda899d8002)" d="M 336.032542 307.584 
L 336.032542 41.472 
" style="fill:none;stroke:#000000;stroke-dasharray:0.5,0.825;stroke-dashoffset:0;stroke-width:0.5;"/>
     </g>
     <g id="line2d_50">
      <g>
       <use style="stroke:#000000;stroke-width:0.6;" x="336.032542" xlink:href="#mc8a9eca84b" y="307.584"/>
      </g>
     </g>
    </g>
    <g id="xtick_26">
     <g id="line2d_51">
      <path clip-path="url(#pda899d8002)" d="M 348.138305 307.584 
L 348.138305 41.472 
" style="fill:none;stroke:#000000;stroke-dasharray:0.5,0.825;stroke-dashoffset:0;stroke-width:0.5;"/>
     </g>
     <g id="line2d_52">
      <g>
       <use style="stroke:#000000;stroke-width:0.6;" x="348.138305" xlink:href="#mc8a9eca84b" y="307.584"/>
      </g>
     </g>
    </g>
    <g id="xtick_27">
     <g id="line2d_53">
      <path clip-path="url(#pda899d8002)" d="M 372.349831 307.584 
L 372.349831 41.472 
" style="fill:none;stroke:#000000;stroke-dasharray:0.5,0.825;stroke-dashoffset:0;stroke-width:0.5;"/>
     </g>
     <g id="line2d_54">
      <g>
       <use style="stroke:#000000;stroke-width:0.6;" x="372.349831" xlink:href="#mc8a9eca84b" y="307.584"/>
      </g>
     </g>
    </g>
    <g id="xtick_28">
     <g id="line2d_55">
      <path clip-path="url(#pda899d8002)" d="M 384.455593 307.584 
L 384.455593 41.472 
" style="fill:none;stroke:#000000;stroke-dasharray:0.5,0.825;stroke-dashoffset:0;stroke-width:0.5;"/>
     </g>
     <g id="line2d_56">
      <g>
       <use style="stroke:#000000;stroke-width:0.6;" x="384.455593" xlink:href="#mc8a9eca84b" y="307.584"/>
      </g>
     </g>
    </g>
    <g id="xtick_29">
     <g id="line2d_57">
      <path clip-path="url(#pda899d8002)" d="M 396.561356 307.584 
L 396.561356 41.472 
" style="fill:none;stroke:#000000;stroke-dasharray:0.5,0.825;stroke-dashoffset:0;stroke-width:0.5;"/>
     </g>
     <g id="line2d_58">
      <g>
       <use style="stroke:#000000;stroke-width:0.6;" x="396.561356" xlink:href="#mc8a9eca84b" y="307.584"/>
      </g>
     </g>
    </g>
    <g id="xtick_30">
     <g id="line2d_59">
      <path clip-path="url(#pda899d8002)" d="M 408.667119 307.584 
L 408.667119 41.472 
" style="fill:none;stroke:#000000;stroke-dasharray:0.5,0.825;stroke-dashoffset:0;stroke-width:0.5;"/>
     </g>
     <g id="line2d_60">
      <g>
       <use style="stroke:#000000;stroke-width:0.6;" x="408.667119" xlink:href="#mc8a9eca84b" y="307.584"/>
      </g>
     </g>
    </g>
    <g id="text_7">
     <!-- Время, c -->
     <g transform="translate(204.816406 338.899937)scale(0.14 -0.14)">
      <defs>
       <path d="M 1081 4666 
L 2694 4666 
Q 3350 4666 3675 4422 
Q 4000 4178 4000 3688 
Q 4000 3238 3720 2911 
Q 3441 2584 2988 2516 
Q 3375 2428 3569 2181 
Q 3763 1934 3763 1522 
Q 3763 819 3242 409 
Q 2722 0 1819 0 
L 172 0 
L 1081 4666 
z
M 1234 2228 
L 903 519 
L 1919 519 
Q 2491 519 2800 781 
Q 3109 1044 3109 1522 
Q 3109 1891 2904 2059 
Q 2700 2228 2247 2228 
L 1234 2228 
z
M 1606 4147 
L 1331 2741 
L 2272 2741 
Q 2775 2741 3058 2959 
Q 3341 3178 3341 3566 
Q 3341 3869 3150 4008 
Q 2959 4147 2541 4147 
L 1606 4147 
z
" id="DejaVuSans-Oblique-412" transform="scale(0.015625)"/>
       <path d="M 3175 2156 
Q 3175 2616 2975 2859 
Q 2775 3103 2400 3103 
Q 2144 3103 1911 2972 
Q 1678 2841 1497 2591 
Q 1319 2344 1212 1994 
Q 1106 1644 1106 1300 
Q 1106 863 1306 627 
Q 1506 391 1875 391 
Q 2147 391 2380 519 
Q 2613 647 2778 891 
Q 2956 1147 3065 1494 
Q 3175 1841 3175 2156 
z
M 1394 2969 
Q 1625 3272 1939 3428 
Q 2253 3584 2638 3584 
Q 3175 3584 3472 3232 
Q 3769 2881 3769 2247 
Q 3769 1728 3584 1258 
Q 3400 788 3053 416 
Q 2822 169 2531 39 
Q 2241 -91 1919 -91 
Q 1547 -91 1294 64 
Q 1041 219 916 525 
L 556 -1331 
L -19 -1331 
L 922 3500 
L 1497 3500 
L 1394 2969 
z
" id="DejaVuSans-Oblique-440" transform="scale(0.015625)"/>
       <path d="M 3078 2063 
Q 3088 2113 3092 2166 
Q 3097 2219 3097 2272 
Q 3097 2653 2873 2875 
Q 2650 3097 2266 3097 
Q 1838 3097 1509 2826 
Q 1181 2556 1013 2059 
L 3078 2063 
z
M 3578 1613 
L 903 1613 
Q 884 1494 878 1425 
Q 872 1356 872 1306 
Q 872 872 1139 634 
Q 1406 397 1894 397 
Q 2269 397 2603 481 
Q 2938 566 3225 728 
L 3116 159 
Q 2806 34 2476 -28 
Q 2147 -91 1806 -91 
Q 1078 -91 686 257 
Q 294 606 294 1247 
Q 294 1794 489 2264 
Q 684 2734 1063 3103 
Q 1306 3334 1642 3459 
Q 1978 3584 2356 3584 
Q 2950 3584 3301 3228 
Q 3653 2872 3653 2272 
Q 3653 2128 3634 1964 
Q 3616 1800 3578 1613 
z
" id="DejaVuSans-Oblique-435" transform="scale(0.015625)"/>
       <path d="M 922 3500 
L 1763 3500 
L 2300 1156 
L 3753 3500 
L 4588 3500 
L 3906 0 
L 3328 0 
L 3903 2950 
L 2494 672 
L 1919 672 
L 1394 2950 
L 819 0 
L 241 0 
L 922 3500 
z
" id="DejaVuSans-Oblique-43c" transform="scale(0.015625)"/>
       <path d="M 1603 2897 
Q 1313 2713 1313 2378 
Q 1313 2197 1466 2067 
Q 1619 1938 1991 1938 
L 2766 1938 
L 2978 3041 
L 2203 3041 
Q 1831 3041 1603 2897 
z
M 22 0 
L 1391 1534 
Q 706 1694 706 2241 
Q 706 2356 731 2491 
Q 931 3500 2278 3500 
L 3647 3500 
L 2966 0 
L 2388 0 
L 2675 1478 
L 1959 1478 
L 641 0 
L 22 0 
z
" id="DejaVuSans-Oblique-44f" transform="scale(0.015625)"/>
       <path d="M 575 794 
L 1234 794 
L 1131 256 
L 422 -744 
L 19 -744 
L 469 256 
L 575 794 
z
" id="DejaVuSans-Oblique-2c" transform="scale(0.015625)"/>
       <path id="DejaVuSans-Oblique-20" transform="scale(0.015625)"/>
       <path d="M 3431 3366 
L 3316 2797 
Q 3109 2947 2876 3022 
Q 2644 3097 2394 3097 
Q 2119 3097 1870 3000 
Q 1622 2903 1453 2725 
Q 1184 2453 1037 2087 
Q 891 1722 891 1331 
Q 891 859 1127 628 
Q 1363 397 1844 397 
Q 2081 397 2348 469 
Q 2616 541 2906 684 
L 2797 116 
Q 2547 13 2283 -39 
Q 2019 -91 1741 -91 
Q 1044 -91 669 257 
Q 294 606 294 1253 
Q 294 1797 489 2255 
Q 684 2713 1069 3078 
Q 1331 3328 1684 3456 
Q 2038 3584 2456 3584 
Q 2700 3584 2940 3529 
Q 3181 3475 3431 3366 
z
" id="DejaVuSans-Oblique-63" transform="scale(0.015625)"/>
      </defs>
      <use xlink:href="#DejaVuSans-Oblique-412"/>
      <use x="68.603516" xlink:href="#DejaVuSans-Oblique-440"/>
      <use x="132.080078" xlink:href="#DejaVuSans-Oblique-435"/>
      <use x="193.603516" xlink:href="#DejaVuSans-Oblique-43c"/>
      <use x="269.042969" xlink:href="#DejaVuSans-Oblique-44f"/>
      <use x="329.199219" xlink:href="#DejaVuSans-Oblique-2c"/>
      <use x="360.986328" xlink:href="#DejaVuSans-Oblique-20"/>
      <use x="392.773438" xlink:href="#DejaVuSans-Oblique-63"/>
     </g>
    </g>
   </g>
   <g id="matplotlib.axis_2">
    <g id="ytick_1">
     <g id="line2d_61">
      <path clip-path="url(#pda899d8002)" d="M 57.6 307.584 
L 414.72 307.584 
" style="fill:none;stroke:#000000;stroke-linecap:square;stroke-width:0.5;"/>
     </g>
     <g id="line2d_62">
      <defs>
       <path d="M 0 0 
L -3.5 0 
" id="m148c5c5652" style="stroke:#000000;stroke-width:0.8;"/>
      </defs>
      <g>
       <use style="stroke:#000000;stroke-width:0.8;" x="57.6" xlink:href="#m148c5c5652" y="307.584"/>
      </g>
     </g>
     <g id="text_8">
      <!-- 0.0 -->
      <g transform="translate(34.696875 311.383219)scale(0.1 -0.1)">
       <defs>
        <path d="M 684 794 
L 1344 794 
L 1344 0 
L 684 0 
L 684 794 
z
" id="DejaVuSans-2e" transform="scale(0.015625)"/>
       </defs>
       <use xlink:href="#DejaVuSans-30"/>
       <use x="63.623047" xlink:href="#DejaVuSans-2e"/>
       <use x="95.410156" xlink:href="#DejaVuSans-30"/>
      </g>
     </g>
    </g>
    <g id="ytick_2">
     <g id="line2d_63">
      <path clip-path="url(#pda899d8002)" d="M 57.6 263.092966 
L 414.72 263.092966 
" style="fill:none;stroke:#000000;stroke-linecap:square;stroke-width:0.5;"/>
     </g>
     <g id="line2d_64">
      <g>
       <use style="stroke:#000000;stroke-width:0.8;" x="57.6" xlink:href="#m148c5c5652" y="263.092966"/>
      </g>
     </g>
     <g id="text_9">
      <!-- 0.5 -->
      <g transform="translate(34.696875 266.892184)scale(0.1 -0.1)">
       <use xlink:href="#DejaVuSans-30"/>
       <use x="63.623047" xlink:href="#DejaVuSans-2e"/>
       <use x="95.410156" xlink:href="#DejaVuSans-35"/>
      </g>
     </g>
    </g>
    <g id="ytick_3">
     <g id="line2d_65">
      <path clip-path="url(#pda899d8002)" d="M 57.6 218.601931 
L 414.72 218.601931 
" style="fill:none;stroke:#000000;stroke-linecap:square;stroke-width:0.5;"/>
     </g>
     <g id="line2d_66">
      <g>
       <use style="stroke:#000000;stroke-width:0.8;" x="57.6" xlink:href="#m148c5c5652" y="218.601931"/>
      </g>
     </g>
     <g id="text_10">
      <!-- 1.0 -->
      <g transform="translate(34.696875 222.40115)scale(0.1 -0.1)">
       <use xlink:href="#DejaVuSans-31"/>
       <use x="63.623047" xlink:href="#DejaVuSans-2e"/>
       <use x="95.410156" xlink:href="#DejaVuSans-30"/>
      </g>
     </g>
    </g>
    <g id="ytick_4">
     <g id="line2d_67">
      <path clip-path="url(#pda899d8002)" d="M 57.6 174.110897 
L 414.72 174.110897 
" style="fill:none;stroke:#000000;stroke-linecap:square;stroke-width:0.5;"/>
     </g>
     <g id="line2d_68">
      <g>
       <use style="stroke:#000000;stroke-width:0.8;" x="57.6" xlink:href="#m148c5c5652" y="174.110897"/>
      </g>
     </g>
     <g id="text_11">
      <!-- 1.5 -->
      <g transform="translate(34.696875 177.910115)scale(0.1 -0.1)">
       <use xlink:href="#DejaVuSans-31"/>
       <use x="63.623047" xlink:href="#DejaVuSans-2e"/>
       <use x="95.410156" xlink:href="#DejaVuSans-35"/>
      </g>
     </g>
    </g>
    <g id="ytick_5">
     <g id="line2d_69">
      <path clip-path="url(#pda899d8002)" d="M 57.6 129.619862 
L 414.72 129.619862 
" style="fill:none;stroke:#000000;stroke-linecap:square;stroke-width:0.5;"/>
     </g>
     <g id="line2d_70">
      <g>
       <use style="stroke:#000000;stroke-width:0.8;" x="57.6" xlink:href="#m148c5c5652" y="129.619862"/>
      </g>
     </g>
     <g id="text_12">
      <!-- 2.0 -->
      <g transform="translate(34.696875 133.419081)scale(0.1 -0.1)">
       <use xlink:href="#DejaVuSans-32"/>
       <use x="63.623047" xlink:href="#DejaVuSans-2e"/>
       <use x="95.410156" xlink:href="#DejaVuSans-30"/>
      </g>
     </g>
    </g>
    <g id="ytick_6">
     <g id="line2d_71">
      <path clip-path="url(#pda899d8002)" d="M 57.6 85.128828 
L 414.72 85.128828 
" style="fill:none;stroke:#000000;stroke-linecap:square;stroke-width:0.5;"/>
     </g>
     <g id="line2d_72">
      <g>
       <use style="stroke:#000000;stroke-width:0.8;" x="57.6" xlink:href="#m148c5c5652" y="85.128828"/>
      </g>
     </g>
     <g id="text_13">
      <!-- 2.5 -->
      <g transform="translate(34.696875 88.928046)scale(0.1 -0.1)">
       <use xlink:href="#DejaVuSans-32"/>
       <use x="63.623047" xlink:href="#DejaVuSans-2e"/>
       <use x="95.410156" xlink:href="#DejaVuSans-35"/>
      </g>
     </g>
    </g>
    <g id="ytick_7">
     <g id="line2d_73">
      <path clip-path="url(#pda899d8002)" d="M 57.6 298.685793 
L 414.72 298.685793 
" style="fill:none;stroke:#000000;stroke-dasharray:0.5,0.825;stroke-dashoffset:0;stroke-width:0.5;"/>
     </g>
     <g id="line2d_74">
      <defs>
       <path d="M 0 0 
L -2 0 
" id="m0399e12fdd" style="stroke:#000000;stroke-width:0.6;"/>
      </defs>
      <g>
       <use style="stroke:#000000;stroke-width:0.6;" x="57.6" xlink:href="#m0399e12fdd" y="298.685793"/>
      </g>
     </g>
    </g>
    <g id="ytick_8">
     <g id="line2d_75">
      <path clip-path="url(#pda899d8002)" d="M 57.6 289.787586 
L 414.72 289.787586 
" style="fill:none;stroke:#000000;stroke-dasharray:0.5,0.825;stroke-dashoffset:0;stroke-width:0.5;"/>
     </g>
     <g id="line2d_76">
      <g>
       <use style="stroke:#000000;stroke-width:0.6;" x="57.6" xlink:href="#m0399e12fdd" y="289.787586"/>
      </g>
     </g>
    </g>
    <g id="ytick_9">
     <g id="line2d_77">
      <path clip-path="url(#pda899d8002)" d="M 57.6 280.889379 
L 414.72 280.889379 
" style="fill:none;stroke:#000000;stroke-dasharray:0.5,0.825;stroke-dashoffset:0;stroke-width:0.5;"/>
     </g>
     <g id="line2d_78">
      <g>
       <use style="stroke:#000000;stroke-width:0.6;" x="57.6" xlink:href="#m0399e12fdd" y="280.889379"/>
      </g>
     </g>
    </g>
    <g id="ytick_10">
     <g id="line2d_79">
      <path clip-path="url(#pda899d8002)" d="M 57.6 271.991172 
L 414.72 271.991172 
" style="fill:none;stroke:#000000;stroke-dasharray:0.5,0.825;stroke-dashoffset:0;stroke-width:0.5;"/>
     </g>
     <g id="line2d_80">
      <g>
       <use style="stroke:#000000;stroke-width:0.6;" x="57.6" xlink:href="#m0399e12fdd" y="271.991172"/>
      </g>
     </g>
    </g>
    <g id="ytick_11">
     <g id="line2d_81">
      <path clip-path="url(#pda899d8002)" d="M 57.6 254.194759 
L 414.72 254.194759 
" style="fill:none;stroke:#000000;stroke-dasharray:0.5,0.825;stroke-dashoffset:0;stroke-width:0.5;"/>
     </g>
     <g id="line2d_82">
      <g>
       <use style="stroke:#000000;stroke-width:0.6;" x="57.6" xlink:href="#m0399e12fdd" y="254.194759"/>
      </g>
     </g>
    </g>
    <g id="ytick_12">
     <g id="line2d_83">
      <path clip-path="url(#pda899d8002)" d="M 57.6 245.296552 
L 414.72 245.296552 
" style="fill:none;stroke:#000000;stroke-dasharray:0.5,0.825;stroke-dashoffset:0;stroke-width:0.5;"/>
     </g>
     <g id="line2d_84">
      <g>
       <use style="stroke:#000000;stroke-width:0.6;" x="57.6" xlink:href="#m0399e12fdd" y="245.296552"/>
      </g>
     </g>
    </g>
    <g id="ytick_13">
     <g id="line2d_85">
      <path clip-path="url(#pda899d8002)" d="M 57.6 236.398345 
L 414.72 236.398345 
" style="fill:none;stroke:#000000;stroke-dasharray:0.5,0.825;stroke-dashoffset:0;stroke-width:0.5;"/>
     </g>
     <g id="line2d_86">
      <g>
       <use style="stroke:#000000;stroke-width:0.6;" x="57.6" xlink:href="#m0399e12fdd" y="236.398345"/>
      </g>
     </g>
    </g>
    <g id="ytick_14">
     <g id="line2d_87">
      <path clip-path="url(#pda899d8002)" d="M 57.6 227.500138 
L 414.72 227.500138 
" style="fill:none;stroke:#000000;stroke-dasharray:0.5,0.825;stroke-dashoffset:0;stroke-width:0.5;"/>
     </g>
     <g id="line2d_88">
      <g>
       <use style="stroke:#000000;stroke-width:0.6;" x="57.6" xlink:href="#m0399e12fdd" y="227.500138"/>
      </g>
     </g>
    </g>
    <g id="ytick_15">
     <g id="line2d_89">
      <path clip-path="url(#pda899d8002)" d="M 57.6 209.703724 
L 414.72 209.703724 
" style="fill:none;stroke:#000000;stroke-dasharray:0.5,0.825;stroke-dashoffset:0;stroke-width:0.5;"/>
     </g>
     <g id="line2d_90">
      <g>
       <use style="stroke:#000000;stroke-width:0.6;" x="57.6" xlink:href="#m0399e12fdd" y="209.703724"/>
      </g>
     </g>
    </g>
    <g id="ytick_16">
     <g id="line2d_91">
      <path clip-path="url(#pda899d8002)" d="M 57.6 200.805517 
L 414.72 200.805517 
" style="fill:none;stroke:#000000;stroke-dasharray:0.5,0.825;stroke-dashoffset:0;stroke-width:0.5;"/>
     </g>
     <g id="line2d_92">
      <g>
       <use style="stroke:#000000;stroke-width:0.6;" x="57.6" xlink:href="#m0399e12fdd" y="200.805517"/>
      </g>
     </g>
    </g>
    <g id="ytick_17">
     <g id="line2d_93">
      <path clip-path="url(#pda899d8002)" d="M 57.6 191.90731 
L 414.72 191.90731 
" style="fill:none;stroke:#000000;stroke-dasharray:0.5,0.825;stroke-dashoffset:0;stroke-width:0.5;"/>
     </g>
     <g id="line2d_94">
      <g>
       <use style="stroke:#000000;stroke-width:0.6;" x="57.6" xlink:href="#m0399e12fdd" y="191.90731"/>
      </g>
     </g>
    </g>
    <g id="ytick_18">
     <g id="line2d_95">
      <path clip-path="url(#pda899d8002)" d="M 57.6 183.009103 
L 414.72 183.009103 
" style="fill:none;stroke:#000000;stroke-dasharray:0.5,0.825;stroke-dashoffset:0;stroke-width:0.5;"/>
     </g>
     <g id="line2d_96">
      <g>
       <use style="stroke:#000000;stroke-width:0.6;" x="57.6" xlink:href="#m0399e12fdd" y="183.009103"/>
      </g>
     </g>
    </g>
    <g id="ytick_19">
     <g id="line2d_97">
      <path clip-path="url(#pda899d8002)" d="M 57.6 165.21269 
L 414.72 165.21269 
" style="fill:none;stroke:#000000;stroke-dasharray:0.5,0.825;stroke-dashoffset:0;stroke-width:0.5;"/>
     </g>
     <g id="line2d_98">
      <g>
       <use style="stroke:#000000;stroke-width:0.6;" x="57.6" xlink:href="#m0399e12fdd" y="165.21269"/>
      </g>
     </g>
    </g>
    <g id="ytick_20">
     <g id="line2d_99">
      <path clip-path="url(#pda899d8002)" d="M 57.6 156.314483 
L 414.72 156.314483 
" style="fill:none;stroke:#000000;stroke-dasharray:0.5,0.825;stroke-dashoffset:0;stroke-width:0.5;"/>
     </g>
     <g id="line2d_100">
      <g>
       <use style="stroke:#000000;stroke-width:0.6;" x="57.6" xlink:href="#m0399e12fdd" y="156.314483"/>
      </g>
     </g>
    </g>
    <g id="ytick_21">
     <g id="line2d_101">
      <path clip-path="url(#pda899d8002)" d="M 57.6 147.416276 
L 414.72 147.416276 
" style="fill:none;stroke:#000000;stroke-dasharray:0.5,0.825;stroke-dashoffset:0;stroke-width:0.5;"/>
     </g>
     <g id="line2d_102">
      <g>
       <use style="stroke:#000000;stroke-width:0.6;" x="57.6" xlink:href="#m0399e12fdd" y="147.416276"/>
      </g>
     </g>
    </g>
    <g id="ytick_22">
     <g id="line2d_103">
      <path clip-path="url(#pda899d8002)" d="M 57.6 138.518069 
L 414.72 138.518069 
" style="fill:none;stroke:#000000;stroke-dasharray:0.5,0.825;stroke-dashoffset:0;stroke-width:0.5;"/>
     </g>
     <g id="line2d_104">
      <g>
       <use style="stroke:#000000;stroke-width:0.6;" x="57.6" xlink:href="#m0399e12fdd" y="138.518069"/>
      </g>
     </g>
    </g>
    <g id="ytick_23">
     <g id="line2d_105">
      <path clip-path="url(#pda899d8002)" d="M 57.6 120.721655 
L 414.72 120.721655 
" style="fill:none;stroke:#000000;stroke-dasharray:0.5,0.825;stroke-dashoffset:0;stroke-width:0.5;"/>
     </g>
     <g id="line2d_106">
      <g>
       <use style="stroke:#000000;stroke-width:0.6;" x="57.6" xlink:href="#m0399e12fdd" y="120.721655"/>
      </g>
     </g>
    </g>
    <g id="ytick_24">
     <g id="line2d_107">
      <path clip-path="url(#pda899d8002)" d="M 57.6 111.823448 
L 414.72 111.823448 
" style="fill:none;stroke:#000000;stroke-dasharray:0.5,0.825;stroke-dashoffset:0;stroke-width:0.5;"/>
     </g>
     <g id="line2d_108">
      <g>
       <use style="stroke:#000000;stroke-width:0.6;" x="57.6" xlink:href="#m0399e12fdd" y="111.823448"/>
      </g>
     </g>
    </g>
    <g id="ytick_25">
     <g id="line2d_109">
      <path clip-path="url(#pda899d8002)" d="M 57.6 102.925241 
L 414.72 102.925241 
" style="fill:none;stroke:#000000;stroke-dasharray:0.5,0.825;stroke-dashoffset:0;stroke-width:0.5;"/>
     </g>
     <g id="line2d_110">
      <g>
       <use style="stroke:#000000;stroke-width:0.6;" x="57.6" xlink:href="#m0399e12fdd" y="102.925241"/>
      </g>
     </g>
    </g>
    <g id="ytick_26">
     <g id="line2d_111">
      <path clip-path="url(#pda899d8002)" d="M 57.6 94.027034 
L 414.72 94.027034 
" style="fill:none;stroke:#000000;stroke-dasharray:0.5,0.825;stroke-dashoffset:0;stroke-width:0.5;"/>
     </g>
     <g id="line2d_112">
      <g>
       <use style="stroke:#000000;stroke-width:0.6;" x="57.6" xlink:href="#m0399e12fdd" y="94.027034"/>
      </g>
     </g>
    </g>
    <g id="ytick_27">
     <g id="line2d_113">
      <path clip-path="url(#pda899d8002)" d="M 57.6 76.230621 
L 414.72 76.230621 
" style="fill:none;stroke:#000000;stroke-dasharray:0.5,0.825;stroke-dashoffset:0;stroke-width:0.5;"/>
     </g>
     <g id="line2d_114">
      <g>
       <use style="stroke:#000000;stroke-width:0.6;" x="57.6" xlink:href="#m0399e12fdd" y="76.230621"/>
      </g>
     </g>
    </g>
    <g id="ytick_28">
     <g id="line2d_115">
      <path clip-path="url(#pda899d8002)" d="M 57.6 67.332414 
L 414.72 67.332414 
" style="fill:none;stroke:#000000;stroke-dasharray:0.5,0.825;stroke-dashoffset:0;stroke-width:0.5;"/>
     </g>
     <g id="line2d_116">
      <g>
       <use style="stroke:#000000;stroke-width:0.6;" x="57.6" xlink:href="#m0399e12fdd" y="67.332414"/>
      </g>
     </g>
    </g>
    <g id="ytick_29">
     <g id="line2d_117">
      <path clip-path="url(#pda899d8002)" d="M 57.6 58.434207 
L 414.72 58.434207 
" style="fill:none;stroke:#000000;stroke-dasharray:0.5,0.825;stroke-dashoffset:0;stroke-width:0.5;"/>
     </g>
     <g id="line2d_118">
      <g>
       <use style="stroke:#000000;stroke-width:0.6;" x="57.6" xlink:href="#m0399e12fdd" y="58.434207"/>
      </g>
     </g>
    </g>
    <g id="ytick_30">
     <g id="line2d_119">
      <path clip-path="url(#pda899d8002)" d="M 57.6 49.536 
L 414.72 49.536 
" style="fill:none;stroke:#000000;stroke-dasharray:0.5,0.825;stroke-dashoffset:0;stroke-width:0.5;"/>
     </g>
     <g id="line2d_120">
      <g>
       <use style="stroke:#000000;stroke-width:0.6;" x="57.6" xlink:href="#m0399e12fdd" y="49.536"/>
      </g>
     </g>
    </g>
    <g id="text_14">
     <!-- Напряжение, В -->
     <g transform="translate(27.785312 230.611125)rotate(-90)scale(0.14 -0.14)">
      <defs>
       <path d="M 1081 4666 
L 1716 4666 
L 1344 2753 
L 3634 2753 
L 4006 4666 
L 4641 4666 
L 3731 0 
L 3097 0 
L 3531 2222 
L 1241 2222 
L 806 0 
L 172 0 
L 1081 4666 
z
" id="DejaVuSans-Oblique-41d" transform="scale(0.015625)"/>
       <path d="M 3438 1997 
L 3047 0 
L 2472 0 
L 2578 531 
Q 2325 219 2001 64 
Q 1678 -91 1281 -91 
Q 834 -91 548 182 
Q 263 456 263 884 
Q 263 1497 752 1853 
Q 1241 2209 2100 2209 
L 2900 2209 
L 2931 2363 
Q 2938 2388 2941 2417 
Q 2944 2447 2944 2509 
Q 2944 2788 2717 2942 
Q 2491 3097 2081 3097 
Q 1800 3097 1504 3025 
Q 1209 2953 897 2809 
L 997 3341 
Q 1322 3463 1633 3523 
Q 1944 3584 2234 3584 
Q 2853 3584 3176 3315 
Q 3500 3047 3500 2534 
Q 3500 2431 3484 2292 
Q 3469 2153 3438 1997 
z
M 2816 1759 
L 2241 1759 
Q 1534 1759 1195 1570 
Q 856 1381 856 984 
Q 856 709 1029 553 
Q 1203 397 1509 397 
Q 1978 397 2328 733 
Q 2678 1069 2791 1631 
L 2816 1759 
z
" id="DejaVuSans-Oblique-430" transform="scale(0.015625)"/>
       <path d="M 3944 3500 
L 3263 0 
L 2684 0 
L 3275 3041 
L 1409 3041 
L 819 0 
L 241 0 
L 922 3500 
L 3944 3500 
z
" id="DejaVuSans-Oblique-43f" transform="scale(0.015625)"/>
       <path d="M 2938 3500 
L 3509 3500 
L 3191 1856 
L 5038 3500 
L 5706 3500 
L 4188 2153 
L 5206 0 
L 4591 0 
L 3756 1769 
L 3050 1141 
L 2828 0 
L 2256 0 
L 2478 1141 
L 2016 1769 
L 494 0 
L -122 0 
L 1734 2153 
L 741 3500 
L 1409 3500 
L 2619 1856 
L 2938 3500 
z
" id="DejaVuSans-Oblique-436" transform="scale(0.015625)"/>
       <path d="M 922 3500 
L 1500 3500 
L 1222 2072 
L 3088 2072 
L 3366 3500 
L 3944 3500 
L 3263 0 
L 2684 0 
L 2997 1613 
L 1131 1613 
L 819 0 
L 241 0 
L 922 3500 
z
" id="DejaVuSans-Oblique-43d" transform="scale(0.015625)"/>
       <path d="M 3919 3500 
L 3238 0 
L 2666 0 
L 3213 2809 
L 978 0 
L 241 0 
L 922 3500 
L 1494 3500 
L 947 697 
L 3178 3500 
L 3919 3500 
z
" id="DejaVuSans-Oblique-438" transform="scale(0.015625)"/>
      </defs>
      <use xlink:href="#DejaVuSans-Oblique-41d"/>
      <use x="75.195312" xlink:href="#DejaVuSans-Oblique-430"/>
      <use x="136.474609" xlink:href="#DejaVuSans-Oblique-43f"/>
      <use x="201.855469" xlink:href="#DejaVuSans-Oblique-440"/>
      <use x="265.332031" xlink:href="#DejaVuSans-Oblique-44f"/>
      <use x="325.488281" xlink:href="#DejaVuSans-Oblique-436"/>
      <use x="415.576172" xlink:href="#DejaVuSans-Oblique-435"/>
      <use x="477.099609" xlink:href="#DejaVuSans-Oblique-43d"/>
      <use x="542.480469" xlink:href="#DejaVuSans-Oblique-438"/>
      <use x="607.470703" xlink:href="#DejaVuSans-Oblique-435"/>
      <use x="668.994141" xlink:href="#DejaVuSans-Oblique-2c"/>
      <use x="700.78125" xlink:href="#DejaVuSans-Oblique-20"/>
      <use x="732.568359" xlink:href="#DejaVuSans-Oblique-412"/>
     </g>
    </g>
   </g>
   <g id="line2d_121">
    <path clip-path="url(#pda899d8002)" d="M 57.6 307.584 
L 57.777339 306.436966 
L 57.954678 306.436966 
L 58.132017 304.142897 
L 58.309357 304.142897 
L 58.486696 302.995862 
L 58.664035 304.142897 
L 58.841374 300.701793 
L 59.018713 300.701793 
L 59.196052 299.554759 
L 59.373392 299.554759 
L 59.550731 297.26069 
L 59.72807 298.407724 
L 59.905409 294.966621 
L 60.082748 296.113655 
L 60.260087 293.819586 
L 60.437427 293.819586 
L 60.614766 292.672552 
L 60.792105 292.672552 
L 60.969444 291.525517 
L 61.146783 291.525517 
L 61.324122 290.378483 
L 61.501462 290.378483 
L 61.678801 289.231448 
L 62.033479 285.790345 
L 62.388157 285.790345 
L 63.097514 281.202207 
L 63.452192 281.202207 
L 63.629532 278.908138 
L 63.806871 280.055172 
L 63.98421 278.908138 
L 64.338888 275.467034 
L 64.516227 274.32 
L 64.693567 274.32 
L 64.870906 273.172966 
L 65.225584 273.172966 
L 65.402923 272.025931 
L 65.580262 272.025931 
L 65.934941 269.731862 
L 66.289619 269.731862 
L 66.466958 268.584828 
L 66.644297 266.290759 
L 66.821636 267.437793 
L 66.998976 263.99669 
L 67.176315 265.143724 
L 67.353654 262.849655 
L 67.708332 262.849655 
L 68.063011 259.408552 
L 68.24035 260.555586 
L 68.417689 259.408552 
L 68.772367 259.408552 
L 68.949706 257.114483 
L 69.127046 257.114483 
L 69.481724 254.820414 
L 69.659063 255.967448 
L 69.836402 253.673379 
L 70.013741 254.820414 
L 70.36842 251.37931 
L 70.545759 251.37931 
L 70.900437 249.085241 
L 71.077776 250.232276 
L 71.255116 249.085241 
L 71.432455 249.085241 
L 71.964472 245.644138 
L 72.141811 245.644138 
L 72.319151 244.497103 
L 72.49649 244.497103 
L 72.673829 243.350069 
L 72.851168 241.056 
L 73.205846 241.056 
L 73.383186 239.908966 
L 73.560525 239.908966 
L 73.915203 237.614897 
L 74.092542 239.908966 
L 74.269881 237.614897 
L 74.44722 237.614897 
L 74.801899 235.320828 
L 74.979238 236.467862 
L 75.156577 235.320828 
L 75.333916 235.320828 
L 75.511255 231.879724 
L 75.688595 235.320828 
L 76.043273 230.73269 
L 76.220612 230.73269 
L 76.57529 228.438621 
L 76.75263 229.585655 
L 76.929969 228.438621 
L 77.107308 228.438621 
L 77.284647 227.291586 
L 77.461986 227.291586 
L 77.639325 224.997517 
L 77.994004 224.997517 
L 78.171343 223.850483 
L 78.526021 223.850483 
L 78.8807 221.556414 
L 79.058039 221.556414 
L 79.412717 219.262345 
L 79.590056 221.556414 
L 79.767395 218.11531 
L 80.299413 218.11531 
L 80.654091 215.821241 
L 81.186109 215.821241 
L 81.540787 213.527172 
L 81.718126 211.233103 
L 81.895465 211.233103 
L 82.072804 213.527172 
L 82.250144 210.086069 
L 82.604822 210.086069 
L 82.782161 208.939034 
L 82.9595 208.939034 
L 83.314179 206.644966 
L 83.668857 206.644966 
L 84.023535 204.350897 
L 84.555553 204.350897 
L 84.732892 203.203862 
L 84.910231 203.203862 
L 85.08757 202.056828 
L 85.264909 203.203862 
L 85.442249 200.909793 
L 85.619588 200.909793 
L 85.974266 198.615724 
L 86.151605 200.909793 
L 86.506284 197.46869 
L 86.860962 197.46869 
L 87.21564 195.174621 
L 87.392979 197.46869 
L 88.102336 192.880552 
L 88.279675 194.027586 
L 88.457014 191.733517 
L 88.634354 194.027586 
L 88.811693 190.586483 
L 88.989032 190.586483 
L 89.166371 191.733517 
L 89.34371 191.733517 
L 89.521049 189.439448 
L 90.230406 189.439448 
L 90.407745 188.292414 
L 90.585084 188.292414 
L 90.762423 185.998345 
L 90.939763 187.145379 
L 91.117102 184.85131 
L 91.294441 185.998345 
L 91.47178 184.85131 
L 91.649119 182.557241 
L 92.003798 184.85131 
L 92.358476 181.410207 
L 92.535815 180.263172 
L 92.713154 182.557241 
L 92.890493 181.410207 
L 93.067833 179.116138 
L 93.245172 180.263172 
L 93.422511 180.263172 
L 93.59985 179.116138 
L 93.777189 179.116138 
L 93.954528 177.969103 
L 94.131868 179.116138 
L 94.309207 176.822069 
L 94.486546 177.969103 
L 94.841224 174.528 
L 95.018563 175.675034 
L 95.195903 175.675034 
L 95.373242 173.380966 
L 95.905259 173.380966 
L 96.082598 172.233931 
L 96.259938 173.380966 
L 96.614616 169.939862 
L 96.791955 169.939862 
L 96.969294 171.086897 
L 97.146633 169.939862 
L 97.323972 171.086897 
L 97.501312 168.792828 
L 97.678651 168.792828 
L 97.85599 167.645793 
L 98.388007 167.645793 
L 98.742686 165.351724 
L 99.274703 165.351724 
L 99.452042 164.20469 
L 99.629382 160.763586 
L 101.225434 160.763586 
L 101.402773 159.616552 
L 102.289469 159.616552 
L 102.466808 158.469517 
L 102.644147 156.175448 
L 102.821487 157.322483 
L 103.176165 157.322483 
L 103.353504 155.028414 
L 103.708182 155.028414 
L 103.885522 153.881379 
L 104.949557 153.881379 
L 105.126896 151.58731 
L 105.304235 152.734345 
L 105.658913 150.440276 
L 105.836252 150.440276 
L 106.013591 151.58731 
L 106.190931 151.58731 
L 106.545609 149.293241 
L 106.722948 149.293241 
L 106.900287 150.440276 
L 107.432305 146.999172 
L 107.786983 146.999172 
L 108.141661 144.705103 
L 108.49634 144.705103 
L 108.673679 145.852138 
L 109.028357 143.558069 
L 109.205696 143.558069 
L 109.383036 142.411034 
L 109.560375 142.411034 
L 109.737714 143.558069 
L 110.092392 143.558069 
L 110.269731 141.264 
L 110.447071 141.264 
L 110.62441 140.116966 
L 110.801749 142.411034 
L 111.333766 138.969931 
L 111.511106 140.116966 
L 111.688445 137.822897 
L 111.865784 138.969931 
L 112.043123 138.969931 
L 112.220462 137.822897 
L 112.397801 138.969931 
L 112.575141 138.969931 
L 112.75248 136.675862 
L 112.929819 137.822897 
L 113.107158 137.822897 
L 113.284497 135.528828 
L 113.461836 136.675862 
L 113.639175 134.381793 
L 113.993854 134.381793 
L 114.171193 135.528828 
L 114.348532 135.528828 
L 114.70321 133.234759 
L 114.88055 133.234759 
L 115.057889 132.087724 
L 115.412567 132.087724 
L 115.589906 133.234759 
L 115.767245 130.94069 
L 115.944585 130.94069 
L 116.121924 132.087724 
L 116.299263 130.94069 
L 116.476602 132.087724 
L 116.653941 129.793655 
L 117.00862 129.793655 
L 117.185959 128.646621 
L 117.540637 128.646621 
L 117.717976 127.499586 
L 117.895315 127.499586 
L 118.072655 128.646621 
L 118.427333 126.352552 
L 118.782011 128.646621 
L 118.95935 127.499586 
L 119.13669 125.205517 
L 119.491368 125.205517 
L 119.668707 126.352552 
L 119.846046 125.205517 
L 120.023385 125.205517 
L 120.200725 124.058483 
L 120.555403 124.058483 
L 120.732742 125.205517 
L 121.08742 122.911448 
L 121.264759 124.058483 
L 121.442099 122.911448 
L 121.619438 125.205517 
L 121.796777 120.617379 
L 121.974116 121.764414 
L 122.151455 121.764414 
L 122.328794 119.470345 
L 122.860812 119.470345 
L 123.038151 120.617379 
L 123.21549 119.470345 
L 123.392829 117.176276 
L 123.570169 119.470345 
L 123.924847 119.470345 
L 124.102186 117.176276 
L 124.279525 118.32331 
L 124.634204 116.029241 
L 124.811543 116.029241 
L 124.988882 117.176276 
L 125.166221 116.029241 
L 125.34356 118.32331 
L 125.698239 116.029241 
L 125.875578 116.029241 
L 126.052917 114.882207 
L 126.762274 114.882207 
L 127.116952 112.588138 
L 127.294291 113.735172 
L 127.47163 112.588138 
L 127.648969 113.735172 
L 128.003648 111.441103 
L 128.180987 112.588138 
L 128.358326 110.294069 
L 128.535665 111.441103 
L 128.713004 111.441103 
L 128.890344 110.294069 
L 129.245022 110.294069 
L 129.422361 111.441103 
L 129.5997 109.147034 
L 130.309057 109.147034 
L 130.486396 108 
L 130.841074 108 
L 131.018413 109.147034 
L 131.195753 106.852966 
L 131.905109 106.852966 
L 132.082448 105.705931 
L 132.791805 105.705931 
L 132.969144 104.558897 
L 133.146483 104.558897 
L 133.323823 105.705931 
L 133.501162 105.705931 
L 133.678501 104.558897 
L 134.033179 104.558897 
L 134.210518 105.705931 
L 134.742536 102.264828 
L 135.097214 102.264828 
L 135.274553 101.117793 
L 135.451893 102.264828 
L 135.629232 102.264828 
L 135.806571 101.117793 
L 136.515928 101.117793 
L 136.693267 102.264828 
L 136.870606 99.970759 
L 137.047945 99.970759 
L 137.225284 101.117793 
L 137.402623 98.823724 
L 137.579962 99.970759 
L 137.757302 98.823724 
L 137.934641 98.823724 
L 138.11198 99.970759 
L 138.466658 97.67669 
L 138.821337 97.67669 
L 138.998676 96.529655 
L 139.176015 97.67669 
L 139.530693 97.67669 
L 139.708032 96.529655 
L 140.062711 96.529655 
L 140.24005 95.382621 
L 140.417389 96.529655 
L 140.594728 95.382621 
L 140.772067 96.529655 
L 140.949407 96.529655 
L 141.126746 94.235586 
L 141.481424 94.235586 
L 141.658763 95.382621 
L 141.836102 94.235586 
L 142.190781 94.235586 
L 142.545459 91.941517 
L 142.722798 94.235586 
L 142.900137 93.088552 
L 143.077477 94.235586 
L 143.254816 91.941517 
L 143.432155 93.088552 
L 143.609494 91.941517 
L 143.964172 91.941517 
L 144.141512 93.088552 
L 144.318851 90.794483 
L 144.49619 93.088552 
L 144.673529 89.647448 
L 145.028207 91.941517 
L 145.382886 87.353379 
L 145.560225 89.647448 
L 145.737564 89.647448 
L 145.914903 90.794483 
L 146.092242 87.353379 
L 148.574991 87.353379 
L 148.929669 85.05931 
L 149.107008 87.353379 
L 149.284347 86.206345 
L 149.461686 87.353379 
L 149.639026 86.206345 
L 150.171043 86.206345 
L 150.348382 85.05931 
L 150.703061 85.05931 
L 150.8804 86.206345 
L 151.057739 85.05931 
L 151.235078 85.05931 
L 151.412417 83.912276 
L 151.589756 83.912276 
L 151.767096 86.206345 
L 151.944435 82.765241 
L 152.121774 83.912276 
L 152.299113 83.912276 
L 152.476452 82.765241 
L 152.653791 83.912276 
L 153.00847 81.618207 
L 153.185809 83.912276 
L 153.363148 83.912276 
L 153.540487 81.618207 
L 153.895165 81.618207 
L 154.072505 80.471172 
L 154.249844 80.471172 
L 154.427183 81.618207 
L 154.781861 79.324138 
L 154.9592 81.618207 
L 155.13654 80.471172 
L 155.491218 80.471172 
L 155.668557 79.324138 
L 155.845896 80.471172 
L 156.023235 80.471172 
L 156.200575 79.324138 
L 156.377914 80.471172 
L 156.555253 79.324138 
L 156.732592 80.471172 
L 156.909931 79.324138 
L 157.08727 79.324138 
L 157.26461 80.471172 
L 157.441949 79.324138 
L 157.619288 80.471172 
L 157.796627 78.177103 
L 157.973966 79.324138 
L 158.151305 79.324138 
L 158.328645 77.030069 
L 158.505984 78.177103 
L 158.860662 78.177103 
L 159.038001 75.883034 
L 159.21534 77.030069 
L 159.39268 77.030069 
L 159.570019 79.324138 
L 159.747358 77.030069 
L 159.924697 77.030069 
L 160.279375 74.736 
L 160.456715 77.030069 
L 160.634054 77.030069 
L 160.988732 74.736 
L 161.166071 74.736 
L 161.34341 75.883034 
L 161.520749 74.736 
L 161.698089 74.736 
L 161.875428 73.588966 
L 162.052767 75.883034 
L 162.230106 73.588966 
L 162.407445 73.588966 
L 162.584784 74.736 
L 162.762124 73.588966 
L 162.939463 75.883034 
L 163.294141 73.588966 
L 163.47148 74.736 
L 163.826159 72.441931 
L 164.003498 73.588966 
L 164.180837 73.588966 
L 164.358176 74.736 
L 164.535515 71.294897 
L 164.712854 73.588966 
L 164.890194 73.588966 
L 165.067533 72.441931 
L 166.131568 72.441931 
L 166.308907 71.294897 
L 166.486246 71.294897 
L 166.663585 72.441931 
L 166.840924 70.147862 
L 167.018264 71.294897 
L 167.72762 71.294897 
L 167.904959 70.147862 
L 168.082299 71.294897 
L 168.259638 70.147862 
L 168.614316 70.147862 
L 168.791655 69.000828 
L 168.968994 70.147862 
L 169.501012 70.147862 
L 169.678351 67.853793 
L 169.85569 70.147862 
L 170.210368 67.853793 
L 170.387708 70.147862 
L 170.565047 69.000828 
L 170.742386 69.000828 
L 170.919725 67.853793 
L 171.097064 67.853793 
L 171.274403 66.706759 
L 171.451743 70.147862 
L 171.629082 66.706759 
L 171.806421 67.853793 
L 171.98376 65.559724 
L 172.161099 66.706759 
L 172.338438 66.706759 
L 172.515778 65.559724 
L 172.693117 66.706759 
L 173.225134 66.706759 
L 173.402473 65.559724 
L 173.579813 66.706759 
L 173.757152 64.41269 
L 173.934491 66.706759 
L 174.11183 65.559724 
L 174.466508 67.853793 
L 174.643848 64.41269 
L 174.821187 65.559724 
L 174.998526 65.559724 
L 175.175865 66.706759 
L 175.353204 65.559724 
L 175.885222 65.559724 
L 176.062561 64.41269 
L 176.949257 64.41269 
L 177.126596 63.265655 
L 177.303935 64.41269 
L 177.481274 62.118621 
L 177.658613 62.118621 
L 177.835952 64.41269 
L 178.013292 64.41269 
L 178.190631 62.118621 
L 178.36797 64.41269 
L 178.545309 63.265655 
L 178.722648 64.41269 
L 178.899987 62.118621 
L 179.077327 63.265655 
L 179.254666 60.971586 
L 179.432005 63.265655 
L 179.786683 60.971586 
L 179.964022 63.265655 
L 180.141362 63.265655 
L 180.318701 62.118621 
L 180.49604 63.265655 
L 180.673379 59.824552 
L 180.850718 63.265655 
L 181.205397 60.971586 
L 181.382736 63.265655 
L 181.560075 60.971586 
L 181.737414 62.118621 
L 181.914753 62.118621 
L 182.092092 60.971586 
L 182.446771 60.971586 
L 182.62411 59.824552 
L 182.801449 59.824552 
L 182.978788 60.971586 
L 183.156127 60.971586 
L 183.333467 59.824552 
L 183.510806 60.971586 
L 183.688145 59.824552 
L 183.865484 59.824552 
L 184.042823 60.971586 
L 184.220162 60.971586 
L 184.397501 59.824552 
L 184.574841 60.971586 
L 184.75218 59.824552 
L 184.929519 59.824552 
L 185.106858 58.677517 
L 185.284197 59.824552 
L 185.461536 57.530483 
L 185.816215 59.824552 
L 185.993554 59.824552 
L 186.170893 58.677517 
L 186.348232 58.677517 
L 186.525571 57.530483 
L 186.88025 57.530483 
L 187.057589 58.677517 
L 187.234928 57.530483 
L 187.412267 57.530483 
L 187.589606 58.677517 
L 187.766946 58.677517 
L 187.944285 56.383448 
L 188.121624 58.677517 
L 188.476302 56.383448 
L 188.653641 57.530483 
L 188.830981 57.530483 
L 189.00832 58.677517 
L 189.362998 56.383448 
L 189.540337 56.383448 
L 189.717676 57.530483 
L 189.895016 56.383448 
L 190.072355 56.383448 
L 190.249694 57.530483 
L 190.427033 55.236414 
L 190.781711 55.236414 
L 190.959051 56.383448 
L 191.13639 54.089379 
L 191.313729 56.383448 
L 191.668407 54.089379 
L 191.845746 56.383448 
L 192.555103 56.383448 
L 192.732442 55.236414 
L 192.909781 55.236414 
L 193.08712 56.383448 
L 193.26446 55.236414 
L 193.441799 55.236414 
L 193.619138 54.089379 
L 193.796477 56.383448 
L 194.151155 52.942345 
L 194.328495 55.236414 
L 194.505834 55.236414 
L 194.683173 52.942345 
L 194.860512 55.236414 
L 195.037851 52.942345 
L 195.21519 54.089379 
L 195.747208 54.089379 
L 195.924547 52.942345 
L 196.101886 54.089379 
L 196.279225 54.089379 
L 196.456565 52.942345 
L 196.633904 54.089379 
L 196.811243 54.089379 
L 196.988582 52.942345 
L 197.34326 52.942345 
L 197.5206 54.089379 
L 197.697939 52.942345 
L 197.875278 50.648276 
L 198.052617 51.79531 
L 198.407295 51.79531 
L 198.584635 52.942345 
L 198.761974 50.648276 
L 199.116652 52.942345 
L 199.293991 50.648276 
L 199.47133 52.942345 
L 199.64867 50.648276 
L 199.826009 52.942345 
L 200.003348 50.648276 
L 200.890044 50.648276 
L 201.067383 49.501241 
L 201.244722 50.648276 
L 202.840774 50.648276 
L 203.018114 51.79531 
L 203.195453 50.648276 
L 203.372792 50.648276 
L 203.550131 51.79531 
L 203.72747 50.648276 
L 204.082149 50.648276 
L 204.436827 48.354207 
L 204.614166 50.648276 
L 205.323523 50.648276 
L 205.500862 49.501241 
L 205.678201 49.501241 
L 205.85554 48.354207 
L 206.032879 48.354207 
L 206.210219 49.501241 
L 206.387558 48.354207 
L 206.564897 50.648276 
L 206.742236 48.354207 
L 206.919575 48.354207 
L 207.096914 49.501241 
L 207.451593 49.501241 
L 207.628932 48.354207 
L 207.806271 48.354207 
L 207.98361 49.501241 
L 208.160949 49.501241 
L 208.338288 48.354207 
L 208.870306 48.354207 
L 209.047645 49.501241 
L 209.224984 47.207172 
L 209.579663 49.501241 
L 209.757002 47.207172 
L 209.934341 47.207172 
L 210.11168 48.354207 
L 210.643698 48.354207 
L 210.821037 47.207172 
L 211.175715 47.207172 
L 211.353054 49.501241 
L 211.707733 47.207172 
L 211.885072 48.354207 
L 212.23975 48.354207 
L 212.417089 47.207172 
L 212.594428 47.207172 
L 212.771768 46.060138 
L 212.949107 47.207172 
L 213.126446 46.060138 
L 213.481124 46.060138 
L 213.658463 47.207172 
L 213.835803 47.207172 
L 214.013142 46.060138 
L 214.190481 46.060138 
L 214.36782 47.207172 
L 214.545159 46.060138 
L 214.722498 46.060138 
L 214.899838 44.913103 
L 215.077177 46.060138 
L 215.254516 46.060138 
L 215.431855 47.207172 
L 215.609194 47.207172 
L 215.786533 46.060138 
L 215.963873 46.060138 
L 216.141212 47.207172 
L 216.49589 44.913103 
L 216.673229 47.207172 
L 216.850568 46.060138 
L 217.027907 43.766069 
L 217.205247 46.060138 
L 217.737264 46.060138 
L 217.914603 43.766069 
L 218.091942 44.913103 
L 218.269282 43.766069 
L 218.446621 44.913103 
L 218.62396 44.913103 
L 218.801299 46.060138 
L 218.978638 43.766069 
L 219.687995 43.766069 
L 219.865334 44.913103 
L 220.042673 43.766069 
L 220.574691 43.766069 
L 220.75203 41.472 
L 220.929369 46.060138 
L 221.106708 46.060138 
L 221.461387 49.501241 
L 221.638726 49.501241 
L 221.816065 48.354207 
L 222.170743 50.648276 
L 222.348082 49.501241 
L 222.525422 50.648276 
L 222.702761 50.648276 
L 223.057439 52.942345 
L 223.234778 55.236414 
L 223.412117 55.236414 
L 223.766796 58.677517 
L 223.944135 57.530483 
L 224.298813 59.824552 
L 224.476152 58.677517 
L 224.653491 59.824552 
L 224.830831 59.824552 
L 225.00817 63.265655 
L 225.185509 63.265655 
L 225.362848 64.41269 
L 225.540187 62.118621 
L 225.717526 65.559724 
L 225.894866 66.706759 
L 226.072205 66.706759 
L 226.249544 67.853793 
L 226.426883 67.853793 
L 226.604222 69.000828 
L 226.781561 69.000828 
L 226.958901 71.294897 
L 227.13624 70.147862 
L 227.313579 71.294897 
L 227.490918 73.588966 
L 228.022936 73.588966 
L 228.377614 75.883034 
L 228.554953 75.883034 
L 228.732292 79.324138 
L 229.086971 79.324138 
L 229.26431 78.177103 
L 229.441649 80.471172 
L 229.618988 80.471172 
L 229.973666 82.765241 
L 230.151006 81.618207 
L 230.328345 81.618207 
L 230.505684 82.765241 
L 230.860362 86.206345 
L 231.037701 86.206345 
L 231.215041 87.353379 
L 231.747058 87.353379 
L 231.924397 88.500414 
L 232.101736 88.500414 
L 232.279075 87.353379 
L 232.456415 91.941517 
L 232.633754 90.794483 
L 232.988432 93.088552 
L 233.165771 93.088552 
L 233.34311 94.235586 
L 233.697789 94.235586 
L 233.875128 95.382621 
L 234.052467 97.67669 
L 234.229806 95.382621 
L 234.407145 98.823724 
L 234.584485 97.67669 
L 234.761824 97.67669 
L 234.939163 99.970759 
L 235.116502 99.970759 
L 235.293841 101.117793 
L 235.47118 101.117793 
L 235.64852 102.264828 
L 235.825859 101.117793 
L 236.357876 104.558897 
L 236.535215 104.558897 
L 236.712555 105.705931 
L 237.067233 105.705931 
L 237.244572 108 
L 237.421911 106.852966 
L 237.59925 108 
L 237.77659 108 
L 238.308607 111.441103 
L 238.663285 111.441103 
L 238.840625 112.588138 
L 239.017964 112.588138 
L 239.195303 113.735172 
L 239.72732 113.735172 
L 239.904659 116.029241 
L 240.081999 116.029241 
L 240.259338 117.176276 
L 240.436677 117.176276 
L 240.614016 118.32331 
L 240.791355 120.617379 
L 240.968694 119.470345 
L 241.146034 120.617379 
L 241.323373 119.470345 
L 241.678051 121.764414 
L 242.032729 121.764414 
L 242.210069 124.058483 
L 242.387408 124.058483 
L 242.564747 125.205517 
L 242.919425 125.205517 
L 243.274104 127.499586 
L 243.451443 127.499586 
L 243.628782 126.352552 
L 243.98346 128.646621 
L 244.515478 128.646621 
L 244.870156 130.94069 
L 245.047495 130.94069 
L 245.224834 133.234759 
L 245.402174 130.94069 
L 245.756852 133.234759 
L 245.934191 133.234759 
L 246.11153 134.381793 
L 246.288869 133.234759 
L 246.466209 135.528828 
L 246.643548 135.528828 
L 246.820887 136.675862 
L 247.175565 136.675862 
L 247.352904 138.969931 
L 247.530244 137.822897 
L 247.707583 140.116966 
L 247.884922 138.969931 
L 248.2396 141.264 
L 248.416939 141.264 
L 248.594278 143.558069 
L 248.771618 141.264 
L 248.948957 143.558069 
L 249.126296 143.558069 
L 249.303635 142.411034 
L 249.835653 145.852138 
L 250.012992 144.705103 
L 250.190331 145.852138 
L 250.722348 145.852138 
L 251.077027 148.146207 
L 251.431705 148.146207 
L 251.786383 150.440276 
L 252.141062 150.440276 
L 252.318401 151.58731 
L 252.49574 150.440276 
L 252.673079 151.58731 
L 252.850418 151.58731 
L 253.027758 153.881379 
L 253.382436 153.881379 
L 253.559775 155.028414 
L 253.737114 153.881379 
L 253.914453 155.028414 
L 254.091793 155.028414 
L 254.269132 156.175448 
L 254.446471 155.028414 
L 254.62381 156.175448 
L 254.801149 158.469517 
L 254.978488 158.469517 
L 255.155828 159.616552 
L 255.333167 158.469517 
L 255.510506 159.616552 
L 255.687845 159.616552 
L 255.865184 160.763586 
L 257.638576 160.763586 
L 257.815915 165.351724 
L 257.993254 160.763586 
L 258.170593 165.351724 
L 258.347932 166.498759 
L 258.525272 166.498759 
L 258.702611 165.351724 
L 259.057289 167.645793 
L 259.411967 167.645793 
L 259.589307 168.792828 
L 259.766646 168.792828 
L 259.943985 171.086897 
L 260.121324 169.939862 
L 260.298663 171.086897 
L 260.476002 169.939862 
L 260.653342 169.939862 
L 261.00802 173.380966 
L 261.185359 173.380966 
L 261.362698 172.233931 
L 261.717377 172.233931 
L 261.894716 173.380966 
L 262.072055 175.675034 
L 262.426733 175.675034 
L 262.604072 176.822069 
L 262.781412 175.675034 
L 262.958751 176.822069 
L 263.13609 176.822069 
L 263.313429 175.675034 
L 263.490768 177.969103 
L 263.668107 177.969103 
L 263.845446 176.822069 
L 264.022786 177.969103 
L 264.200125 180.263172 
L 264.377464 179.116138 
L 264.554803 179.116138 
L 264.732142 180.263172 
L 264.909481 179.116138 
L 265.086821 180.263172 
L 265.26416 182.557241 
L 265.441499 181.410207 
L 265.618838 182.557241 
L 265.796177 181.410207 
L 265.973516 183.704276 
L 266.328195 183.704276 
L 266.505534 184.85131 
L 266.682873 183.704276 
L 266.860212 184.85131 
L 267.037551 183.704276 
L 267.214891 184.85131 
L 267.924247 184.85131 
L 268.101586 185.998345 
L 268.278926 188.292414 
L 268.456265 188.292414 
L 268.633604 187.145379 
L 268.810943 189.439448 
L 268.988282 188.292414 
L 269.165621 189.439448 
L 269.342961 189.439448 
L 269.5203 190.586483 
L 269.697639 190.586483 
L 269.874978 189.439448 
L 270.052317 190.586483 
L 270.406996 190.586483 
L 270.584335 192.880552 
L 270.761674 191.733517 
L 270.939013 192.880552 
L 271.116352 192.880552 
L 271.293691 194.027586 
L 271.471031 194.027586 
L 271.64837 192.880552 
L 272.003048 195.174621 
L 272.180387 194.027586 
L 272.535065 196.321655 
L 272.712405 195.174621 
L 273.067083 197.46869 
L 274.308457 197.46869 
L 274.485796 198.615724 
L 274.663135 197.46869 
L 275.017814 197.46869 
L 275.195153 199.762759 
L 275.372492 199.762759 
L 275.549831 200.909793 
L 275.72717 199.762759 
L 275.90451 197.46869 
L 276.081849 200.909793 
L 276.259188 200.909793 
L 276.436527 202.056828 
L 276.613866 202.056828 
L 276.791205 203.203862 
L 276.968545 203.203862 
L 277.145884 204.350897 
L 277.500562 202.056828 
L 277.677901 203.203862 
L 277.85524 205.497931 
L 278.03258 204.350897 
L 278.209919 204.350897 
L 278.387258 205.497931 
L 278.741936 205.497931 
L 278.919275 206.644966 
L 279.096615 205.497931 
L 279.273954 207.792 
L 279.628632 207.792 
L 279.805971 206.644966 
L 279.98331 207.792 
L 280.160649 207.792 
L 280.515328 210.086069 
L 280.692667 210.086069 
L 280.870006 208.939034 
L 281.402024 208.939034 
L 281.579363 210.086069 
L 281.756702 210.086069 
L 281.934041 212.380138 
L 282.11138 212.380138 
L 282.288719 211.233103 
L 282.466059 213.527172 
L 282.643398 212.380138 
L 282.998076 212.380138 
L 283.175415 213.527172 
L 283.352754 212.380138 
L 283.707433 214.674207 
L 283.884772 214.674207 
L 284.062111 215.821241 
L 284.23945 215.821241 
L 284.416789 214.674207 
L 284.594129 214.674207 
L 284.771468 216.968276 
L 284.948807 216.968276 
L 285.126146 215.821241 
L 285.303485 216.968276 
L 285.480824 216.968276 
L 285.658164 215.821241 
L 285.835503 216.968276 
L 286.012842 216.968276 
L 286.190181 219.262345 
L 286.36752 219.262345 
L 286.544859 220.409379 
L 286.899538 218.11531 
L 287.076877 218.11531 
L 287.254216 219.262345 
L 287.431555 218.11531 
L 287.608894 219.262345 
L 287.786233 219.262345 
L 287.963573 218.11531 
L 288.140912 220.409379 
L 288.49559 220.409379 
L 288.672929 221.556414 
L 288.850268 221.556414 
L 289.027608 222.703448 
L 289.204947 221.556414 
L 289.559625 221.556414 
L 289.736964 224.997517 
L 289.914303 222.703448 
L 290.091643 223.850483 
L 290.268982 223.850483 
L 290.446321 224.997517 
L 290.62366 223.850483 
L 290.800999 226.144552 
L 290.978338 224.997517 
L 291.155678 226.144552 
L 291.333017 226.144552 
L 291.510356 224.997517 
L 291.687695 224.997517 
L 291.865034 226.144552 
L 292.929069 226.144552 
L 293.106408 227.291586 
L 293.283748 229.585655 
L 293.461087 227.291586 
L 293.815765 227.291586 
L 293.993104 228.438621 
L 294.170443 228.438621 
L 294.347783 227.291586 
L 294.525122 230.73269 
L 294.702461 230.73269 
L 294.8798 229.585655 
L 295.057139 230.73269 
L 295.234478 228.438621 
L 295.766496 231.879724 
L 295.943835 231.879724 
L 296.121174 230.73269 
L 296.475852 233.026759 
L 296.653192 233.026759 
L 296.830531 231.879724 
L 297.00787 233.026759 
L 297.185209 235.320828 
L 297.362548 231.879724 
L 297.539887 235.320828 
L 297.717227 235.320828 
L 297.894566 234.173793 
L 298.071905 231.879724 
L 298.426583 235.320828 
L 299.13594 235.320828 
L 299.313279 237.614897 
L 299.490618 235.320828 
L 299.667957 236.467862 
L 299.845297 235.320828 
L 300.199975 237.614897 
L 300.554653 237.614897 
L 300.731992 238.761931 
L 300.909332 235.320828 
L 301.086671 236.467862 
L 301.26401 236.467862 
L 301.618688 238.761931 
L 301.796027 236.467862 
L 301.973367 238.761931 
L 302.328045 236.467862 
L 302.505384 238.761931 
L 302.682723 238.761931 
L 302.860062 239.908966 
L 303.037402 237.614897 
L 303.214741 237.614897 
L 303.39208 239.908966 
L 303.924097 239.908966 
L 304.101436 238.761931 
L 304.633454 242.203034 
L 304.810793 241.056 
L 305.165471 241.056 
L 305.342811 243.350069 
L 305.52015 242.203034 
L 305.874828 242.203034 
L 306.052167 243.350069 
L 306.229506 243.350069 
L 306.406846 242.203034 
L 306.761524 242.203034 
L 307.116202 244.497103 
L 307.293541 244.497103 
L 307.470881 243.350069 
L 307.825559 243.350069 
L 308.002898 245.644138 
L 308.180237 245.644138 
L 308.534916 243.350069 
L 308.889594 245.644138 
L 309.066933 245.644138 
L 309.244272 246.791172 
L 309.421611 245.644138 
L 309.598951 246.791172 
L 309.77629 244.497103 
L 309.953629 245.644138 
L 310.130968 247.938207 
L 310.308307 245.644138 
L 310.485646 246.791172 
L 310.662986 245.644138 
L 311.017664 249.085241 
L 311.195003 247.938207 
L 311.372342 249.085241 
L 311.549681 247.938207 
L 311.72702 249.085241 
L 311.90436 247.938207 
L 312.081699 247.938207 
L 312.259038 249.085241 
L 313.145734 249.085241 
L 313.500412 251.37931 
L 313.85509 249.085241 
L 314.03243 251.37931 
L 314.209769 250.232276 
L 314.387108 252.526345 
L 314.564447 251.37931 
L 314.919125 251.37931 
L 315.096465 252.526345 
L 315.273804 252.526345 
L 315.451143 251.37931 
L 315.628482 251.37931 
L 315.805821 252.526345 
L 316.692517 252.526345 
L 316.869856 251.37931 
L 317.047195 253.673379 
L 317.224535 252.526345 
L 317.401874 253.673379 
L 317.579213 253.673379 
L 317.756552 252.526345 
L 317.933891 254.820414 
L 318.11123 253.673379 
L 318.465909 253.673379 
L 318.643248 255.967448 
L 318.820587 254.820414 
L 318.997926 255.967448 
L 319.175265 254.820414 
L 319.352604 254.820414 
L 319.529944 253.673379 
L 319.707283 254.820414 
L 319.884622 254.820414 
L 320.061961 257.114483 
L 320.2393 255.967448 
L 320.948657 255.967448 
L 321.125996 257.114483 
L 321.303335 255.967448 
L 321.658014 258.261517 
L 321.835353 255.967448 
L 322.012692 257.114483 
L 322.36737 257.114483 
L 322.544709 259.408552 
L 322.722049 257.114483 
L 322.899388 257.114483 
L 323.076727 258.261517 
L 323.254066 257.114483 
L 323.431405 257.114483 
L 323.963423 260.555586 
L 324.140762 259.408552 
L 324.850119 259.408552 
L 325.027458 258.261517 
L 325.382136 260.555586 
L 325.559475 260.555586 
L 325.736814 259.408552 
L 325.914154 261.702621 
L 326.091493 261.702621 
L 326.268832 262.849655 
L 326.446171 260.555586 
L 326.800849 262.849655 
L 326.978188 262.849655 
L 327.155528 261.702621 
L 327.332867 261.702621 
L 327.510206 260.555586 
L 327.687545 261.702621 
L 328.219563 261.702621 
L 328.396902 262.849655 
L 328.75158 262.849655 
L 328.928919 261.702621 
L 329.283598 261.702621 
L 329.460937 262.849655 
L 329.815615 262.849655 
L 329.992954 265.143724 
L 330.170293 262.849655 
L 330.347633 263.99669 
L 330.702311 263.99669 
L 330.87965 262.849655 
L 331.056989 263.99669 
L 331.943685 263.99669 
L 332.121024 265.143724 
L 332.653042 265.143724 
L 332.830381 263.99669 
L 333.00772 266.290759 
L 333.185059 265.143724 
L 333.539738 265.143724 
L 333.717077 263.99669 
L 334.071755 266.290759 
L 334.426433 266.290759 
L 334.603773 267.437793 
L 334.781112 267.437793 
L 334.958451 266.290759 
L 335.13579 267.437793 
L 335.313129 267.437793 
L 335.490468 266.290759 
L 335.667807 266.290759 
L 335.845147 267.437793 
L 336.022486 266.290759 
L 336.199825 269.731862 
L 336.377164 268.584828 
L 336.554503 266.290759 
L 337.086521 269.731862 
L 337.26386 268.584828 
L 337.441199 269.731862 
L 337.618538 268.584828 
L 337.795877 269.731862 
L 337.973217 269.731862 
L 338.150556 268.584828 
L 338.327895 268.584828 
L 338.505234 269.731862 
L 338.682573 268.584828 
L 338.859912 269.731862 
L 339.037252 268.584828 
L 339.214591 270.878897 
L 339.39193 269.731862 
L 339.569269 272.025931 
L 339.746608 272.025931 
L 339.923947 269.731862 
L 340.101287 272.025931 
L 340.278626 272.025931 
L 340.455965 270.878897 
L 340.987982 270.878897 
L 341.165322 272.025931 
L 341.342661 272.025931 
L 341.52 270.878897 
L 341.697339 272.025931 
L 341.874678 270.878897 
L 342.052017 272.025931 
L 342.406696 272.025931 
L 342.584035 270.878897 
L 342.761374 272.025931 
L 343.64807 272.025931 
L 344.002748 274.32 
L 344.180087 273.172966 
L 344.357426 274.32 
L 344.534766 273.172966 
L 344.712105 274.32 
L 344.889444 273.172966 
L 345.066783 274.32 
L 345.421461 272.025931 
L 345.598801 274.32 
L 345.77614 273.172966 
L 345.953479 274.32 
L 346.130818 274.32 
L 346.308157 273.172966 
L 346.662836 273.172966 
L 346.840175 272.025931 
L 347.017514 275.467034 
L 347.194853 275.467034 
L 347.549531 273.172966 
L 347.726871 274.32 
L 347.90421 274.32 
L 348.081549 275.467034 
L 348.258888 275.467034 
L 348.613566 273.172966 
L 348.968245 276.614069 
L 349.145584 275.467034 
L 349.500262 275.467034 
L 349.677601 276.614069 
L 349.854941 275.467034 
L 350.03228 276.614069 
L 350.209619 276.614069 
L 350.386958 275.467034 
L 350.564297 276.614069 
L 350.741636 275.467034 
L 350.918975 275.467034 
L 351.096315 276.614069 
L 351.273654 275.467034 
L 351.450993 275.467034 
L 351.628332 277.761103 
L 351.805671 276.614069 
L 352.16035 276.614069 
L 352.337689 277.761103 
L 352.515028 277.761103 
L 352.692367 276.614069 
L 353.047045 276.614069 
L 353.224385 275.467034 
L 353.401724 278.908138 
L 353.579063 278.908138 
L 353.756402 277.761103 
L 353.933741 278.908138 
L 354.28842 278.908138 
L 354.465759 277.761103 
L 354.643098 278.908138 
L 354.997776 278.908138 
L 355.175115 277.761103 
L 355.707133 277.761103 
L 355.884472 278.908138 
L 356.061811 277.761103 
L 356.41649 280.055172 
L 356.593829 278.908138 
L 356.771168 280.055172 
L 356.948507 280.055172 
L 357.125846 278.908138 
L 357.303185 280.055172 
L 357.480525 278.908138 
L 357.657864 278.908138 
L 357.835203 277.761103 
L 358.012542 280.055172 
L 358.189881 278.908138 
L 358.54456 278.908138 
L 358.721899 280.055172 
L 359.253916 280.055172 
L 359.431255 282.349241 
L 359.785934 280.055172 
L 359.963273 280.055172 
L 360.140612 281.202207 
L 360.317951 280.055172 
L 360.672629 282.349241 
L 360.849969 280.055172 
L 361.027308 282.349241 
L 361.204647 281.202207 
L 361.559325 281.202207 
L 361.736664 282.349241 
L 361.914004 281.202207 
L 362.091343 281.202207 
L 362.268682 280.055172 
L 362.62336 282.349241 
L 362.800699 281.202207 
L 362.978039 283.496276 
L 363.155378 281.202207 
L 363.332717 283.496276 
L 363.510056 282.349241 
L 363.687395 283.496276 
L 363.864734 283.496276 
L 364.042074 281.202207 
L 364.396752 283.496276 
L 364.574091 282.349241 
L 364.75143 283.496276 
L 364.928769 280.055172 
L 365.106109 282.349241 
L 365.460787 282.349241 
L 365.638126 283.496276 
L 365.815465 282.349241 
L 365.992804 283.496276 
L 366.170144 282.349241 
L 366.702161 282.349241 
L 366.8795 283.496276 
L 367.056839 283.496276 
L 367.234178 284.64331 
L 367.411518 284.64331 
L 367.588857 282.349241 
L 367.766196 283.496276 
L 368.120874 283.496276 
L 368.298213 282.349241 
L 368.475553 283.496276 
L 368.652892 283.496276 
L 368.830231 285.790345 
L 369.184909 283.496276 
L 369.362248 284.64331 
L 369.716927 284.64331 
L 369.894266 283.496276 
L 370.071605 283.496276 
L 370.248944 285.790345 
L 370.426283 284.64331 
L 370.603623 284.64331 
L 370.780962 285.790345 
L 370.958301 285.790345 
L 371.13564 283.496276 
L 371.312979 284.64331 
L 371.490318 284.64331 
L 371.667658 285.790345 
L 371.844997 283.496276 
L 372.199675 286.937379 
L 372.377014 285.790345 
L 372.731693 285.790345 
L 372.909032 284.64331 
L 373.26371 286.937379 
L 373.441049 285.790345 
L 374.327745 285.790345 
L 374.505084 288.084414 
L 374.682423 285.790345 
L 375.214441 285.790345 
L 375.569119 288.084414 
L 375.746458 285.790345 
L 375.923797 286.937379 
L 376.101137 286.937379 
L 376.278476 288.084414 
L 376.455815 285.790345 
L 376.810493 288.084414 
L 376.987832 288.084414 
L 377.165172 286.937379 
L 377.342511 288.084414 
L 377.697189 285.790345 
L 377.874528 288.084414 
L 378.051867 286.937379 
L 378.583885 286.937379 
L 378.761224 288.084414 
L 378.938563 288.084414 
L 379.115902 286.937379 
L 379.293242 286.937379 
L 379.470581 289.231448 
L 379.825259 286.937379 
L 380.002598 289.231448 
L 380.357277 289.231448 
L 380.534616 290.378483 
L 380.711955 288.084414 
L 380.889294 289.231448 
L 381.066633 288.084414 
L 381.243972 289.231448 
L 381.421312 288.084414 
L 381.598651 290.378483 
L 381.77599 288.084414 
L 381.953329 288.084414 
L 382.130668 290.378483 
L 382.308007 289.231448 
L 382.485346 289.231448 
L 382.662686 290.378483 
L 382.840025 290.378483 
L 383.017364 289.231448 
L 383.194703 290.378483 
L 383.549381 290.378483 
L 383.726721 288.084414 
L 384.081399 290.378483 
L 384.258738 289.231448 
L 384.436077 290.378483 
L 384.613416 288.084414 
L 384.790756 289.231448 
L 384.968095 291.525517 
L 385.145434 289.231448 
L 385.322773 289.231448 
L 385.500112 290.378483 
L 386.918826 290.378483 
L 387.096165 289.231448 
L 387.273504 290.378483 
L 387.450843 290.378483 
L 387.628182 289.231448 
L 387.805521 290.378483 
L 387.982861 290.378483 
L 388.1602 291.525517 
L 388.337539 291.525517 
L 388.514878 289.231448 
L 388.692217 291.525517 
L 388.869556 291.525517 
L 389.046896 290.378483 
L 389.224235 292.672552 
L 389.578913 290.378483 
L 389.756252 292.672552 
L 389.933591 290.378483 
L 390.110931 291.525517 
L 390.28827 290.378483 
L 390.465609 291.525517 
L 390.642948 291.525517 
L 390.820287 290.378483 
L 391.174965 292.672552 
L 391.529644 290.378483 
L 391.706983 291.525517 
L 392.41634 291.525517 
L 392.593679 290.378483 
L 392.771018 291.525517 
L 393.303035 291.525517 
L 393.480375 290.378483 
L 393.835053 292.672552 
L 394.189731 292.672552 
L 394.36707 291.525517 
L 394.54441 291.525517 
L 394.721749 292.672552 
L 395.431105 292.672552 
L 395.608445 291.525517 
L 395.785784 292.672552 
L 395.963123 291.525517 
L 396.49514 291.525517 
L 396.67248 292.672552 
L 396.849819 292.672552 
L 397.027158 293.819586 
L 397.204497 292.672552 
L 397.559175 292.672552 
L 397.736515 293.819586 
L 397.913854 291.525517 
L 398.091193 292.672552 
L 398.268532 292.672552 
L 398.445871 293.819586 
L 398.977889 293.819586 
L 399.155228 292.672552 
L 399.332567 292.672552 
L 399.509906 293.819586 
L 399.864584 291.525517 
L 400.219263 294.966621 
L 400.396602 292.672552 
L 400.573941 292.672552 
L 400.75128 294.966621 
L 400.928619 294.966621 
L 401.105959 292.672552 
L 401.283298 293.819586 
L 401.460637 292.672552 
L 401.637976 292.672552 
L 401.815315 293.819586 
L 401.992654 292.672552 
L 402.169994 293.819586 
L 402.347333 292.672552 
L 402.524672 293.819586 
L 402.702011 296.113655 
L 402.87935 293.819586 
L 403.056689 294.966621 
L 403.234029 294.966621 
L 403.411368 293.819586 
L 403.588707 294.966621 
L 404.120724 294.966621 
L 404.298064 293.819586 
L 404.475403 294.966621 
L 404.652742 293.819586 
L 404.830081 294.966621 
L 405.184759 294.966621 
L 405.362099 293.819586 
L 405.539438 294.966621 
L 406.426133 294.966621 
L 406.603473 293.819586 
L 406.780812 293.819586 
L 406.958151 294.966621 
L 407.13549 293.819586 
L 407.490168 296.113655 
L 407.667508 294.966621 
L 407.844847 294.966621 
L 408.022186 293.819586 
L 408.199525 296.113655 
L 408.376864 294.966621 
L 408.731543 297.26069 
L 408.908882 297.26069 
L 409.086221 294.966621 
L 409.26356 294.966621 
L 409.618238 297.26069 
L 409.795578 293.819586 
L 409.972917 293.819586 
L 410.504934 297.26069 
L 410.859613 294.966621 
L 411.214291 297.26069 
L 411.39163 296.113655 
L 411.746308 296.113655 
L 411.923648 294.966621 
L 412.100987 297.26069 
L 412.278326 294.966621 
L 412.455665 296.113655 
L 412.633004 296.113655 
L 412.810343 297.26069 
L 412.987683 296.113655 
L 413.165022 297.26069 
L 413.342361 297.26069 
L 413.5197 296.113655 
L 413.697039 297.26069 
L 414.051718 297.26069 
L 414.229057 298.407724 
L 414.406396 296.113655 
L 414.583735 296.113655 
L 414.761074 297.26069 
L 414.761074 297.26069 
" style="fill:none;stroke:#ff0000;stroke-linecap:square;stroke-width:1.5;"/>
   </g>
   <g id="patch_3">
    <path d="M 57.6 307.584 
L 57.6 41.472 
" style="fill:none;stroke:#000000;stroke-linecap:square;stroke-linejoin:miter;stroke-width:0.8;"/>
   </g>
   <g id="patch_4">
    <path d="M 414.72 307.584 
L 414.72 41.472 
" style="fill:none;stroke:#000000;stroke-linecap:square;stroke-linejoin:miter;stroke-width:0.8;"/>
   </g>
   <g id="patch_5">
    <path d="M 57.6 307.584 
L 414.72 307.584 
" style="fill:none;stroke:#000000;stroke-linecap:square;stroke-linejoin:miter;stroke-width:0.8;"/>
   </g>
   <g id="patch_6">
    <path d="M 57.6 41.472 
L 414.72 41.472 
" style="fill:none;stroke:#000000;stroke-linecap:square;stroke-linejoin:miter;stroke-width:0.8;"/>
   </g>
   <g id="text_15">
    <!-- Время зарядки  = 26 c -->
    <g style="fill:#0000ff;" transform="translate(106.023051 276.440276)scale(0.1 -0.1)">
     <defs>
      <path d="M 1259 2228 
L 1259 519 
L 2272 519 
Q 2781 519 3026 730 
Q 3272 941 3272 1375 
Q 3272 1813 3026 2020 
Q 2781 2228 2272 2228 
L 1259 2228 
z
M 1259 4147 
L 1259 2741 
L 2194 2741 
Q 2656 2741 2882 2914 
Q 3109 3088 3109 3444 
Q 3109 3797 2882 3972 
Q 2656 4147 2194 4147 
L 1259 4147 
z
M 628 4666 
L 2241 4666 
Q 2963 4666 3353 4366 
Q 3744 4066 3744 3513 
Q 3744 3084 3544 2831 
Q 3344 2578 2956 2516 
Q 3422 2416 3680 2098 
Q 3938 1781 3938 1306 
Q 3938 681 3513 340 
Q 3088 0 2303 0 
L 628 0 
L 628 4666 
z
" id="DejaVuSans-412" transform="scale(0.015625)"/>
      <path d="M 1159 525 
L 1159 -1331 
L 581 -1331 
L 581 3500 
L 1159 3500 
L 1159 2969 
Q 1341 3281 1617 3432 
Q 1894 3584 2278 3584 
Q 2916 3584 3314 3078 
Q 3713 2572 3713 1747 
Q 3713 922 3314 415 
Q 2916 -91 2278 -91 
Q 1894 -91 1617 61 
Q 1341 213 1159 525 
z
M 3116 1747 
Q 3116 2381 2855 2742 
Q 2594 3103 2138 3103 
Q 1681 3103 1420 2742 
Q 1159 2381 1159 1747 
Q 1159 1113 1420 752 
Q 1681 391 2138 391 
Q 2594 391 2855 752 
Q 3116 1113 3116 1747 
z
" id="DejaVuSans-440" transform="scale(0.015625)"/>
      <path d="M 3597 1894 
L 3597 1613 
L 953 1613 
Q 991 1019 1311 708 
Q 1631 397 2203 397 
Q 2534 397 2845 478 
Q 3156 559 3463 722 
L 3463 178 
Q 3153 47 2828 -22 
Q 2503 -91 2169 -91 
Q 1331 -91 842 396 
Q 353 884 353 1716 
Q 353 2575 817 3079 
Q 1281 3584 2069 3584 
Q 2775 3584 3186 3129 
Q 3597 2675 3597 1894 
z
M 3022 2063 
Q 3016 2534 2758 2815 
Q 2500 3097 2075 3097 
Q 1594 3097 1305 2825 
Q 1016 2553 972 2059 
L 3022 2063 
z
" id="DejaVuSans-435" transform="scale(0.015625)"/>
      <path d="M 581 3500 
L 1422 3500 
L 2416 1156 
L 3413 3500 
L 4247 3500 
L 4247 0 
L 3669 0 
L 3669 2950 
L 2703 672 
L 2128 672 
L 1159 2950 
L 1159 0 
L 581 0 
L 581 3500 
z
" id="DejaVuSans-43c" transform="scale(0.015625)"/>
      <path d="M 1181 2491 
Q 1181 2231 1381 2084 
Q 1581 1938 1953 1938 
L 2728 1938 
L 2728 3041 
L 1953 3041 
Q 1581 3041 1381 2897 
Q 1181 2753 1181 2491 
z
M 363 0 
L 1431 1534 
Q 1069 1616 828 1830 
Q 588 2044 588 2491 
Q 588 2997 923 3248 
Q 1259 3500 1938 3500 
L 3306 3500 
L 3306 0 
L 2728 0 
L 2728 1478 
L 2013 1478 
L 981 0 
L 363 0 
z
" id="DejaVuSans-44f" transform="scale(0.015625)"/>
      <path id="DejaVuSans-20" transform="scale(0.015625)"/>
      <path d="M 2206 1888 
Q 2594 1813 2809 1584 
Q 3025 1356 3025 1019 
Q 3025 478 2622 193 
Q 2219 -91 1475 -91 
Q 1225 -91 961 -47 
Q 697 -3 416 84 
L 416 619 
Q 638 503 903 445 
Q 1169 388 1459 388 
Q 1931 388 2195 563 
Q 2459 738 2459 1019 
Q 2459 1294 2225 1461 
Q 1991 1628 1563 1628 
L 1100 1628 
L 1100 2103 
L 1584 2103 
Q 1947 2103 2158 2242 
Q 2369 2381 2369 2600 
Q 2369 2800 2151 2944 
Q 1934 3088 1563 3088 
Q 1341 3088 1089 3047 
Q 838 3006 534 2916 
L 534 3438 
Q 841 3513 1106 3550 
Q 1372 3588 1609 3588 
Q 2222 3588 2576 3342 
Q 2931 3097 2931 2656 
Q 2931 2366 2743 2164 
Q 2556 1963 2206 1888 
z
" id="DejaVuSans-437" transform="scale(0.015625)"/>
      <path d="M 2194 1759 
Q 1497 1759 1228 1600 
Q 959 1441 959 1056 
Q 959 750 1161 570 
Q 1363 391 1709 391 
Q 2188 391 2477 730 
Q 2766 1069 2766 1631 
L 2766 1759 
L 2194 1759 
z
M 3341 1997 
L 3341 0 
L 2766 0 
L 2766 531 
Q 2569 213 2275 61 
Q 1981 -91 1556 -91 
Q 1019 -91 701 211 
Q 384 513 384 1019 
Q 384 1609 779 1909 
Q 1175 2209 1959 2209 
L 2766 2209 
L 2766 2266 
Q 2766 2663 2505 2880 
Q 2244 3097 1772 3097 
Q 1472 3097 1187 3025 
Q 903 2953 641 2809 
L 641 3341 
Q 956 3463 1253 3523 
Q 1550 3584 1831 3584 
Q 2591 3584 2966 3190 
Q 3341 2797 3341 1997 
z
" id="DejaVuSans-430" transform="scale(0.015625)"/>
      <path d="M 1384 459 
L 3053 459 
L 3053 3041 
L 1844 3041 
L 1844 2603 
Q 1844 1316 1475 628 
L 1384 459 
z
M 550 459 
Q 834 584 959 850 
Q 1266 1509 1266 2838 
L 1266 3500 
L 3631 3500 
L 3631 459 
L 4091 459 
L 4091 -884 
L 3631 -884 
L 3631 0 
L 794 0 
L 794 -884 
L 334 -884 
L 334 459 
L 550 459 
z
" id="DejaVuSans-434" transform="scale(0.015625)"/>
      <path d="M 581 3500 
L 1153 3500 
L 1153 1856 
L 2775 3500 
L 3481 3500 
L 2144 2147 
L 3653 0 
L 3009 0 
L 1769 1766 
L 1153 1141 
L 1153 0 
L 581 0 
L 581 3500 
z
" id="DejaVuSans-43a" transform="scale(0.015625)"/>
      <path d="M 3578 3500 
L 3578 0 
L 3006 0 
L 3006 2809 
L 1319 0 
L 581 0 
L 581 3500 
L 1153 3500 
L 1153 697 
L 2838 3500 
L 3578 3500 
z
" id="DejaVuSans-438" transform="scale(0.015625)"/>
      <path d="M 678 2906 
L 4684 2906 
L 4684 2381 
L 678 2381 
L 678 2906 
z
M 678 1631 
L 4684 1631 
L 4684 1100 
L 678 1100 
L 678 1631 
z
" id="DejaVuSans-3d" transform="scale(0.015625)"/>
      <path d="M 2113 2584 
Q 1688 2584 1439 2293 
Q 1191 2003 1191 1497 
Q 1191 994 1439 701 
Q 1688 409 2113 409 
Q 2538 409 2786 701 
Q 3034 994 3034 1497 
Q 3034 2003 2786 2293 
Q 2538 2584 2113 2584 
z
M 3366 4563 
L 3366 3988 
Q 3128 4100 2886 4159 
Q 2644 4219 2406 4219 
Q 1781 4219 1451 3797 
Q 1122 3375 1075 2522 
Q 1259 2794 1537 2939 
Q 1816 3084 2150 3084 
Q 2853 3084 3261 2657 
Q 3669 2231 3669 1497 
Q 3669 778 3244 343 
Q 2819 -91 2113 -91 
Q 1303 -91 875 529 
Q 447 1150 447 2328 
Q 447 3434 972 4092 
Q 1497 4750 2381 4750 
Q 2619 4750 2861 4703 
Q 3103 4656 3366 4563 
z
" id="DejaVuSans-36" transform="scale(0.015625)"/>
      <path d="M 3122 3366 
L 3122 2828 
Q 2878 2963 2633 3030 
Q 2388 3097 2138 3097 
Q 1578 3097 1268 2742 
Q 959 2388 959 1747 
Q 959 1106 1268 751 
Q 1578 397 2138 397 
Q 2388 397 2633 464 
Q 2878 531 3122 666 
L 3122 134 
Q 2881 22 2623 -34 
Q 2366 -91 2075 -91 
Q 1284 -91 818 406 
Q 353 903 353 1747 
Q 353 2603 823 3093 
Q 1294 3584 2113 3584 
Q 2378 3584 2631 3529 
Q 2884 3475 3122 3366 
z
" id="DejaVuSans-63" transform="scale(0.015625)"/>
     </defs>
     <use xlink:href="#DejaVuSans-412"/>
     <use x="68.603516" xlink:href="#DejaVuSans-440"/>
     <use x="132.080078" xlink:href="#DejaVuSans-435"/>
     <use x="193.603516" xlink:href="#DejaVuSans-43c"/>
     <use x="269.042969" xlink:href="#DejaVuSans-44f"/>
     <use x="329.199219" xlink:href="#DejaVuSans-20"/>
     <use x="360.986328" xlink:href="#DejaVuSans-437"/>
     <use x="414.160156" xlink:href="#DejaVuSans-430"/>
     <use x="475.439453" xlink:href="#DejaVuSans-440"/>
     <use x="538.916016" xlink:href="#DejaVuSans-44f"/>
     <use x="599.072266" xlink:href="#DejaVuSans-434"/>
     <use x="668.212891" xlink:href="#DejaVuSans-43a"/>
     <use x="728.613281" xlink:href="#DejaVuSans-438"/>
     <use x="793.603516" xlink:href="#DejaVuSans-20"/>
     <use x="825.390625" xlink:href="#DejaVuSans-20"/>
     <use x="857.177734" xlink:href="#DejaVuSans-3d"/>
     <use x="940.966797" xlink:href="#DejaVuSans-20"/>
     <use x="972.753906" xlink:href="#DejaVuSans-32"/>
     <use x="1036.376953" xlink:href="#DejaVuSans-36"/>
     <use x="1100" xlink:href="#DejaVuSans-20"/>
     <use x="1131.787109" xlink:href="#DejaVuSans-63"/>
    </g>
   </g>
   <g id="text_16">
    <!-- Время разрядки = 32 c -->
    <g style="fill:#008000;" transform="translate(106.023051 289.787586)scale(0.1 -0.1)">
     <use xlink:href="#DejaVuSans-412"/>
     <use x="68.603516" xlink:href="#DejaVuSans-440"/>
     <use x="132.080078" xlink:href="#DejaVuSans-435"/>
     <use x="193.603516" xlink:href="#DejaVuSans-43c"/>
     <use x="269.042969" xlink:href="#DejaVuSans-44f"/>
     <use x="329.199219" xlink:href="#DejaVuSans-20"/>
     <use x="360.986328" xlink:href="#DejaVuSans-440"/>
     <use x="424.462891" xlink:href="#DejaVuSans-430"/>
     <use x="485.742188" xlink:href="#DejaVuSans-437"/>
     <use x="538.916016" xlink:href="#DejaVuSans-440"/>
     <use x="602.392578" xlink:href="#DejaVuSans-44f"/>
     <use x="662.548828" xlink:href="#DejaVuSans-434"/>
     <use x="731.689453" xlink:href="#DejaVuSans-43a"/>
     <use x="792.089844" xlink:href="#DejaVuSans-438"/>
     <use x="857.080078" xlink:href="#DejaVuSans-20"/>
     <use x="888.867188" xlink:href="#DejaVuSans-3d"/>
     <use x="972.65625" xlink:href="#DejaVuSans-20"/>
     <use x="1004.443359" xlink:href="#DejaVuSans-33"/>
     <use x="1068.066406" xlink:href="#DejaVuSans-32"/>
     <use x="1131.689453" xlink:href="#DejaVuSans-20"/>
     <use x="1163.476562" xlink:href="#DejaVuSans-63"/>
    </g>
   </g>
   <g id="text_17">
    <!-- Процесс разряда и разряда конденсатора -->
    <g transform="translate(38.39625 35.472)scale(0.16 -0.16)">
     <defs>
      <path d="M 4769 4666 
L 4769 0 
L 3566 0 
L 3566 3756 
L 1791 3756 
L 1791 0 
L 588 0 
L 588 4666 
L 4769 4666 
z
" id="DejaVuSans-Bold-41f" transform="scale(0.015625)"/>
      <path d="M 1656 506 
L 1656 -1331 
L 538 -1331 
L 538 3500 
L 1656 3500 
L 1656 2988 
Q 1888 3294 2169 3439 
Q 2450 3584 2816 3584 
Q 3463 3584 3878 3070 
Q 4294 2556 4294 1747 
Q 4294 938 3878 423 
Q 3463 -91 2816 -91 
Q 2450 -91 2169 54 
Q 1888 200 1656 506 
z
M 2400 2772 
Q 2041 2772 1848 2508 
Q 1656 2244 1656 1747 
Q 1656 1250 1848 986 
Q 2041 722 2400 722 
Q 2759 722 2948 984 
Q 3138 1247 3138 1747 
Q 3138 2247 2948 2509 
Q 2759 2772 2400 2772 
z
" id="DejaVuSans-Bold-440" transform="scale(0.015625)"/>
      <path d="M 2203 2784 
Q 1831 2784 1636 2517 
Q 1441 2250 1441 1747 
Q 1441 1244 1636 976 
Q 1831 709 2203 709 
Q 2569 709 2762 976 
Q 2956 1244 2956 1747 
Q 2956 2250 2762 2517 
Q 2569 2784 2203 2784 
z
M 2203 3584 
Q 3106 3584 3614 3096 
Q 4122 2609 4122 1747 
Q 4122 884 3614 396 
Q 3106 -91 2203 -91 
Q 1297 -91 786 396 
Q 275 884 275 1747 
Q 275 2609 786 3096 
Q 1297 3584 2203 3584 
z
" id="DejaVuSans-Bold-43e" transform="scale(0.015625)"/>
      <path d="M 3666 -884 
L 3666 0 
L 538 0 
L 538 3500 
L 1656 3500 
L 1656 800 
L 2766 800 
L 2766 3500 
L 3884 3500 
L 3884 800 
L 4466 800 
L 4466 -884 
L 3666 -884 
z
" id="DejaVuSans-Bold-446" transform="scale(0.015625)"/>
      <path d="M 4031 1759 
L 4031 1441 
L 1416 1441 
Q 1456 1047 1700 850 
Q 1944 653 2381 653 
Q 2734 653 3104 758 
Q 3475 863 3866 1075 
L 3866 213 
Q 3469 63 3072 -14 
Q 2675 -91 2278 -91 
Q 1328 -91 801 392 
Q 275 875 275 1747 
Q 275 2603 792 3093 
Q 1309 3584 2216 3584 
Q 3041 3584 3536 3087 
Q 4031 2591 4031 1759 
z
M 2881 2131 
Q 2881 2450 2695 2645 
Q 2509 2841 2209 2841 
Q 1884 2841 1681 2658 
Q 1478 2475 1428 2131 
L 2881 2131 
z
" id="DejaVuSans-Bold-435" transform="scale(0.015625)"/>
      <path d="M 3366 3391 
L 3366 2478 
Q 3138 2634 2908 2709 
Q 2678 2784 2431 2784 
Q 1963 2784 1702 2511 
Q 1441 2238 1441 1747 
Q 1441 1256 1702 982 
Q 1963 709 2431 709 
Q 2694 709 2930 787 
Q 3166 866 3366 1019 
L 3366 103 
Q 3103 6 2833 -42 
Q 2563 -91 2291 -91 
Q 1344 -91 809 395 
Q 275 881 275 1747 
Q 275 2613 809 3098 
Q 1344 3584 2291 3584 
Q 2566 3584 2833 3536 
Q 3100 3488 3366 3391 
z
" id="DejaVuSans-Bold-441" transform="scale(0.015625)"/>
      <path id="DejaVuSans-Bold-20" transform="scale(0.015625)"/>
      <path d="M 2106 1575 
Q 1756 1575 1579 1456 
Q 1403 1338 1403 1106 
Q 1403 894 1545 773 
Q 1688 653 1941 653 
Q 2256 653 2472 879 
Q 2688 1106 2688 1447 
L 2688 1575 
L 2106 1575 
z
M 3816 1997 
L 3816 0 
L 2688 0 
L 2688 519 
Q 2463 200 2181 54 
Q 1900 -91 1497 -91 
Q 953 -91 614 226 
Q 275 544 275 1050 
Q 275 1666 698 1953 
Q 1122 2241 2028 2241 
L 2688 2241 
L 2688 2328 
Q 2688 2594 2478 2717 
Q 2269 2841 1825 2841 
Q 1466 2841 1156 2769 
Q 847 2697 581 2553 
L 581 3406 
Q 941 3494 1303 3539 
Q 1666 3584 2028 3584 
Q 2975 3584 3395 3211 
Q 3816 2838 3816 1997 
z
" id="DejaVuSans-Bold-430" transform="scale(0.015625)"/>
      <path d="M 900 2181 
L 1413 2181 
Q 1872 2181 2039 2281 
Q 2206 2381 2206 2519 
Q 2206 2841 1469 2841 
Q 853 2841 472 2625 
L 472 3434 
Q 1041 3584 1713 3584 
Q 2500 3584 2862 3361 
Q 3225 3138 3225 2666 
Q 3225 2047 2541 1888 
Q 3313 1697 3313 994 
Q 3313 453 2888 181 
Q 2463 -91 1553 -91 
Q 875 -91 313 84 
L 313 947 
Q 1013 653 1428 653 
Q 1884 653 2089 776 
Q 2294 900 2294 1056 
Q 2294 1491 1394 1491 
L 900 1491 
L 900 2181 
z
" id="DejaVuSans-Bold-437" transform="scale(0.015625)"/>
      <path d="M 1528 2394 
Q 1528 2169 1651 2069 
Q 1775 1969 2059 1969 
L 2463 1969 
L 2463 2816 
L 2059 2816 
Q 1775 2816 1651 2719 
Q 1528 2622 1528 2394 
z
M 197 0 
L 1113 1497 
Q 847 1650 650 1917 
Q 453 2184 453 2516 
Q 453 3013 789 3256 
Q 1125 3500 1878 3500 
L 3581 3500 
L 3581 0 
L 2463 0 
L 2463 1278 
L 2069 1278 
L 1288 0 
L 197 0 
z
" id="DejaVuSans-Bold-44f" transform="scale(0.015625)"/>
      <path d="M 547 800 
Q 903 919 1053 1314 
Q 1203 1709 1203 2838 
L 1203 3500 
L 4228 3500 
L 4228 800 
L 4809 800 
L 4809 -884 
L 4009 -884 
L 4009 0 
L 1159 0 
L 1159 -884 
L 359 -884 
L 359 800 
L 547 800 
z
M 3109 2700 
L 2322 2700 
L 2322 2603 
Q 2322 1456 2063 800 
L 3109 800 
L 3109 2700 
z
" id="DejaVuSans-Bold-434" transform="scale(0.015625)"/>
      <path d="M 3947 3500 
L 3947 0 
L 2828 0 
L 2828 1863 
L 1700 0 
L 538 0 
L 538 3500 
L 1656 3500 
L 1656 1638 
L 2784 3500 
L 3947 3500 
z
" id="DejaVuSans-Bold-438" transform="scale(0.015625)"/>
      <path d="M 538 3500 
L 1656 3500 
L 1656 2316 
L 2903 3500 
L 4128 3500 
L 2634 2078 
L 4250 0 
L 3094 0 
L 1972 1447 
L 1656 1147 
L 1656 0 
L 538 0 
L 538 3500 
z
" id="DejaVuSans-Bold-43a" transform="scale(0.015625)"/>
      <path d="M 538 3500 
L 1656 3500 
L 1656 2169 
L 2766 2169 
L 2766 3500 
L 3884 3500 
L 3884 0 
L 2766 0 
L 2766 1478 
L 1656 1478 
L 1656 0 
L 538 0 
L 538 3500 
z
" id="DejaVuSans-Bold-43d" transform="scale(0.015625)"/>
      <path d="M 25 3500 
L 3681 3500 
L 3681 2809 
L 2413 2809 
L 2413 0 
L 1297 0 
L 1297 2809 
L 25 2809 
L 25 3500 
z
" id="DejaVuSans-Bold-442" transform="scale(0.015625)"/>
     </defs>
     <use xlink:href="#DejaVuSans-Bold-41f"/>
     <use x="83.691406" xlink:href="#DejaVuSans-Bold-440"/>
     <use x="155.273438" xlink:href="#DejaVuSans-Bold-43e"/>
     <use x="223.974609" xlink:href="#DejaVuSans-Bold-446"/>
     <use x="298.095703" xlink:href="#DejaVuSans-Bold-435"/>
     <use x="365.917969" xlink:href="#DejaVuSans-Bold-441"/>
     <use x="425.195312" xlink:href="#DejaVuSans-Bold-441"/>
     <use x="484.472656" xlink:href="#DejaVuSans-Bold-20"/>
     <use x="519.287109" xlink:href="#DejaVuSans-Bold-440"/>
     <use x="590.869141" xlink:href="#DejaVuSans-Bold-430"/>
     <use x="658.349609" xlink:href="#DejaVuSans-Bold-437"/>
     <use x="716.455078" xlink:href="#DejaVuSans-Bold-440"/>
     <use x="788.037109" xlink:href="#DejaVuSans-Bold-44f"/>
     <use x="852.246094" xlink:href="#DejaVuSans-Bold-434"/>
     <use x="933.007812" xlink:href="#DejaVuSans-Bold-430"/>
     <use x="1000.488281" xlink:href="#DejaVuSans-Bold-20"/>
     <use x="1035.302734" xlink:href="#DejaVuSans-Bold-438"/>
     <use x="1105.371094" xlink:href="#DejaVuSans-Bold-20"/>
     <use x="1140.185547" xlink:href="#DejaVuSans-Bold-440"/>
     <use x="1211.767578" xlink:href="#DejaVuSans-Bold-430"/>
     <use x="1279.248047" xlink:href="#DejaVuSans-Bold-437"/>
     <use x="1337.353516" xlink:href="#DejaVuSans-Bold-440"/>
     <use x="1408.935547" xlink:href="#DejaVuSans-Bold-44f"/>
     <use x="1473.144531" xlink:href="#DejaVuSans-Bold-434"/>
     <use x="1553.90625" xlink:href="#DejaVuSans-Bold-430"/>
     <use x="1621.386719" xlink:href="#DejaVuSans-Bold-20"/>
     <use x="1656.201172" xlink:href="#DejaVuSans-Bold-43a"/>
     <use x="1724.072266" xlink:href="#DejaVuSans-Bold-43e"/>
     <use x="1792.773438" xlink:href="#DejaVuSans-Bold-43d"/>
     <use x="1861.865234" xlink:href="#DejaVuSans-Bold-434"/>
     <use x="1942.626953" xlink:href="#DejaVuSans-Bold-435"/>
     <use x="2010.449219" xlink:href="#DejaVuSans-Bold-43d"/>
     <use x="2079.541016" xlink:href="#DejaVuSans-Bold-441"/>
     <use x="2138.818359" xlink:href="#DejaVuSans-Bold-430"/>
     <use x="2206.298828" xlink:href="#DejaVuSans-Bold-442"/>
     <use x="2264.257812" xlink:href="#DejaVuSans-Bold-43e"/>
     <use x="2332.958984" xlink:href="#DejaVuSans-Bold-440"/>
     <use x="2404.541016" xlink:href="#DejaVuSans-Bold-430"/>
    </g>
   </g>
   <g id="legend_1">
    <g id="patch_7">
     <path d="M 64.6 64.150125 
L 118.820312 64.150125 
Q 120.820312 64.150125 120.820312 62.150125 
L 120.820312 48.472 
Q 120.820312 46.472 118.820312 46.472 
L 64.6 46.472 
Q 62.6 46.472 62.6 48.472 
L 62.6 62.150125 
Q 62.6 64.150125 64.6 64.150125 
z
" style="fill:#ffffff;opacity:0.8;stroke:#cccccc;stroke-linejoin:miter;"/>
    </g>
    <g id="line2d_122">
     <path d="M 66.6 54.570438 
L 86.6 54.570438 
" style="fill:none;stroke:#ff0000;stroke-linecap:square;stroke-width:1.5;"/>
    </g>
    <g id="line2d_123"/>
    <g id="text_18">
     <!-- U (t) -->
     <g transform="translate(94.6 58.070438)scale(0.1 -0.1)">
      <defs>
       <path d="M 556 4666 
L 1191 4666 
L 1191 1831 
Q 1191 1081 1462 751 
Q 1734 422 2344 422 
Q 2950 422 3222 751 
Q 3494 1081 3494 1831 
L 3494 4666 
L 4128 4666 
L 4128 1753 
Q 4128 841 3676 375 
Q 3225 -91 2344 -91 
Q 1459 -91 1007 375 
Q 556 841 556 1753 
L 556 4666 
z
" id="DejaVuSans-55" transform="scale(0.015625)"/>
       <path d="M 1984 4856 
Q 1566 4138 1362 3434 
Q 1159 2731 1159 2009 
Q 1159 1288 1364 580 
Q 1569 -128 1984 -844 
L 1484 -844 
Q 1016 -109 783 600 
Q 550 1309 550 2009 
Q 550 2706 781 3412 
Q 1013 4119 1484 4856 
L 1984 4856 
z
" id="DejaVuSans-28" transform="scale(0.015625)"/>
       <path d="M 1172 4494 
L 1172 3500 
L 2356 3500 
L 2356 3053 
L 1172 3053 
L 1172 1153 
Q 1172 725 1289 603 
Q 1406 481 1766 481 
L 2356 481 
L 2356 0 
L 1766 0 
Q 1100 0 847 248 
Q 594 497 594 1153 
L 594 3053 
L 172 3053 
L 172 3500 
L 594 3500 
L 594 4494 
L 1172 4494 
z
" id="DejaVuSans-74" transform="scale(0.015625)"/>
       <path d="M 513 4856 
L 1013 4856 
Q 1481 4119 1714 3412 
Q 1947 2706 1947 2009 
Q 1947 1309 1714 600 
Q 1481 -109 1013 -844 
L 513 -844 
Q 928 -128 1133 580 
Q 1338 1288 1338 2009 
Q 1338 2731 1133 3434 
Q 928 4138 513 4856 
z
" id="DejaVuSans-29" transform="scale(0.015625)"/>
      </defs>
      <use xlink:href="#DejaVuSans-55"/>
      <use x="73.193359" xlink:href="#DejaVuSans-20"/>
      <use x="104.980469" xlink:href="#DejaVuSans-28"/>
      <use x="143.994141" xlink:href="#DejaVuSans-74"/>
      <use x="183.203125" xlink:href="#DejaVuSans-29"/>
     </g>
    </g>
   </g>
  </g>
 </g>
 <defs>
  <clipPath id="pda899d8002">
   <rect height="266.112" width="357.12" x="57.6" y="41.472"/>
  </clipPath>
 </defs>
</svg>
